<svg width="368" height="84" viewBox="0 0 368 84" fill="none" xmlns="http://www.w3.org/2000/svg">
<g filter="url(#filter0_d)">
<path d="M184 82H4V22H153.012C156.522 17.0501 161.168 13.014 166.56 10.2301C171.951 7.44612 177.932 5.99555 184 6.00001C190.068 5.99555 196.049 7.44612 201.44 10.2301C206.832 13.014 211.478 17.0501 214.988 22H364V82H184Z" fill="url(#paint0_linear)"/>
</g>
<path d="M184 75C201.121 75 215 61.1208 215 44C215 26.8792 201.121 13 184 13C166.879 13 153 26.8792 153 44C153 61.1208 166.879 75 184 75Z" fill="url(#paint1_linear)"/>
<defs>
<filter id="filter0_d" x="0" y="0" width="368" height="84" filterUnits="userSpaceOnUse" color-interpolation-filters="sRGB">
<feFlood flood-opacity="0" result="BackgroundImageFix"/>
<feColorMatrix in="SourceAlpha" type="matrix" values="0 0 0 0 0 0 0 0 0 0 0 0 0 0 0 0 0 0 127 0"/>
<feOffset dy="-2"/>
<feGaussianBlur stdDeviation="2"/>
<feColorMatrix type="matrix" values="0 0 0 0 0 0 0 0 0 0 0 0 0 0 0 0 0 0 0.4 0"/>
<feBlend mode="normal" in2="BackgroundImageFix" result="effect1_dropShadow"/>
<feBlend mode="normal" in="SourceGraphic" in2="effect1_dropShadow" result="shape"/>
</filter>
<linearGradient id="paint0_linear" x1="-713.12" y1="25.912" x2="482.004" y2="878.719" gradientUnits="userSpaceOnUse">
<stop stop-color="#31326C"/>
<stop offset="0.468" stop-color="#2D2E60"/>
<stop offset="1" stop-color="#242658"/>
</linearGradient>
<linearGradient id="paint1_linear" x1="203.778" y1="68.552" x2="162.486" y2="24.532" gradientUnits="userSpaceOnUse">
<stop stop-color="#F7313D"/>
<stop offset="1" stop-color="#FF009D"/>
</linearGradient>
</defs>
</svg>
