<svg width="209" height="133" viewBox="0 0 209 133" fill="none" xmlns="http://www.w3.org/2000/svg">
<path d="M8.082 7.866V11.166C7.65 11.478 7.188 11.712 6.696 11.868C6.208 12.02 5.672 12.096 5.088 12.096C4.396 12.096 3.772 11.99 3.216 11.778C2.66 11.562 2.184 11.262 1.788 10.878C1.396 10.49 1.094 10.026 0.882 9.486C0.67 8.946 0.564 8.352 0.564 7.704C0.564 7.048 0.666 6.45 0.87 5.91C1.078 5.37 1.372 4.908 1.752 4.524C2.132 4.136 2.594 3.836 3.138 3.624C3.682 3.412 4.29 3.306 4.962 3.306C5.302 3.306 5.618 3.332 5.91 3.384C6.202 3.432 6.472 3.504 6.72 3.6C6.968 3.692 7.198 3.806 7.41 3.942C7.622 4.074 7.82 4.224 8.004 4.392L7.674 4.92C7.622 5 7.554 5.052 7.47 5.076C7.39 5.096 7.3 5.076 7.2 5.016C7.104 4.96 6.994 4.892 6.87 4.812C6.746 4.732 6.594 4.656 6.414 4.584C6.238 4.508 6.028 4.444 5.784 4.392C5.544 4.34 5.258 4.314 4.926 4.314C4.442 4.314 4.004 4.394 3.612 4.554C3.22 4.71 2.886 4.936 2.61 5.232C2.334 5.524 2.122 5.88 1.974 6.3C1.826 6.716 1.752 7.184 1.752 7.704C1.752 8.244 1.828 8.728 1.98 9.156C2.136 9.58 2.356 9.942 2.64 10.242C2.928 10.538 3.276 10.764 3.684 10.92C4.092 11.076 4.55 11.154 5.058 11.154C5.458 11.154 5.812 11.11 6.12 11.022C6.432 10.93 6.736 10.804 7.032 10.644V8.754H5.694C5.618 8.754 5.556 8.732 5.508 8.688C5.464 8.644 5.442 8.59 5.442 8.526V7.866H8.082ZM13.1816 11.076C13.5376 11.076 13.8556 11.016 14.1356 10.896C14.4156 10.776 14.6516 10.608 14.8436 10.392C15.0396 10.176 15.1876 9.918 15.2876 9.618C15.3916 9.318 15.4436 8.988 15.4436 8.628V3.402H16.6016V8.628C16.6016 9.124 16.5216 9.584 16.3616 10.008C16.2056 10.432 15.9796 10.8 15.6836 11.112C15.3916 11.42 15.0336 11.662 14.6096 11.838C14.1856 12.014 13.7096 12.102 13.1816 12.102C12.6536 12.102 12.1776 12.014 11.7536 11.838C11.3296 11.662 10.9696 11.42 10.6736 11.112C10.3776 10.8 10.1496 10.432 9.98963 10.008C9.83363 9.584 9.75563 9.124 9.75563 8.628V3.402H10.9136V8.622C10.9136 8.982 10.9636 9.312 11.0636 9.612C11.1676 9.912 11.3156 10.17 11.5076 10.386C11.7036 10.602 11.9416 10.772 12.2216 10.896C12.5056 11.016 12.8256 11.076 13.1816 11.076ZM24.5018 4.38H21.7178V12H20.5598V4.38H17.7698V3.402H24.5018V4.38ZM32.7437 3.402V12H31.5797V8.088H26.9417V12H25.7777V3.402H26.9417V7.236H31.5797V3.402H32.7437ZM39.5078 8.808L38.1578 5.31C38.1178 5.206 38.0758 5.086 38.0318 4.95C37.9878 4.81 37.9458 4.662 37.9058 4.506C37.8218 4.83 37.7358 5.1 37.6478 5.316L36.2978 8.808H39.5078ZM41.9318 12H41.0318C40.9278 12 40.8438 11.974 40.7798 11.922C40.7158 11.87 40.6678 11.804 40.6358 11.724L39.8318 9.648H35.9738L35.1698 11.724C35.1458 11.796 35.0998 11.86 35.0318 11.916C34.9638 11.972 34.8798 12 34.7798 12H33.8798L37.3178 3.402H38.4938L41.9318 12ZM46.0808 11.076C46.4128 11.076 46.6988 11.038 46.9388 10.962C47.1788 10.886 47.3748 10.78 47.5268 10.644C47.6828 10.504 47.7968 10.34 47.8688 10.152C47.9408 9.96 47.9768 9.75 47.9768 9.522C47.9768 9.078 47.8188 8.728 47.5028 8.472C47.1868 8.212 46.7128 8.082 46.0808 8.082H44.2208V11.076H46.0808ZM44.2208 4.32V7.254H45.7568C46.0848 7.254 46.3688 7.218 46.6088 7.146C46.8528 7.074 47.0528 6.974 47.2088 6.846C47.3688 6.718 47.4868 6.564 47.5628 6.384C47.6388 6.2 47.6768 6 47.6768 5.784C47.6768 5.276 47.5248 4.906 47.2208 4.674C46.9168 4.438 46.4448 4.32 45.8048 4.32H44.2208ZM45.8048 3.402C46.3328 3.402 46.7868 3.454 47.1668 3.558C47.5508 3.662 47.8648 3.81 48.1088 4.002C48.3568 4.194 48.5388 4.43 48.6548 4.71C48.7708 4.986 48.8288 5.298 48.8288 5.646C48.8288 5.858 48.7948 6.062 48.7268 6.258C48.6628 6.45 48.5648 6.63 48.4328 6.798C48.3008 6.966 48.1328 7.118 47.9288 7.254C47.7288 7.386 47.4928 7.494 47.2208 7.578C47.8528 7.698 48.3268 7.924 48.6428 8.256C48.9628 8.584 49.1228 9.016 49.1228 9.552C49.1228 9.916 49.0548 10.248 48.9188 10.548C48.7868 10.848 48.5908 11.106 48.3308 11.322C48.0748 11.538 47.7588 11.706 47.3828 11.826C47.0068 11.942 46.5788 12 46.0988 12H43.0628V3.402H45.8048ZM56.1247 11.052L56.1187 12H50.8207V3.402H56.1187V4.35H51.9847V7.206H55.3327V8.118H51.9847V11.052H56.1247ZM64.7124 3.402V12H64.1304C64.0384 12 63.9604 11.984 63.8964 11.952C63.8364 11.92 63.7764 11.866 63.7164 11.79L58.7424 5.31C58.7504 5.41 58.7564 5.508 58.7604 5.604C58.7644 5.7 58.7664 5.79 58.7664 5.874V12H57.7464V3.402H58.3464C58.3984 3.402 58.4424 3.406 58.4784 3.414C58.5144 3.418 58.5464 3.428 58.5744 3.444C58.6024 3.456 58.6304 3.476 58.6584 3.504C58.6864 3.528 58.7164 3.56 58.7484 3.6L63.7224 10.074C63.7144 9.97 63.7064 9.87 63.6984 9.774C63.6944 9.674 63.6924 9.58 63.6924 9.492V3.402H64.7124Z" fill="white"/>
<path d="M5.664 57.808L4.314 54.31C4.274 54.206 4.232 54.086 4.188 53.95C4.144 53.81 4.102 53.662 4.062 53.506C3.978 53.83 3.892 54.1 3.804 54.316L2.454 57.808H5.664ZM8.088 61H7.188C7.084 61 7 60.974 6.936 60.922C6.872 60.87 6.824 60.804 6.792 60.724L5.988 58.648H2.13L1.326 60.724C1.302 60.796 1.256 60.86 1.188 60.916C1.12 60.972 1.036 61 0.936 61H0.036L3.474 52.402H4.65L8.088 61ZM12.3379 60.076C12.6939 60.076 13.0119 60.016 13.2919 59.896C13.5719 59.776 13.8079 59.608 13.9999 59.392C14.1959 59.176 14.3439 58.918 14.4439 58.618C14.5479 58.318 14.5999 57.988 14.5999 57.628V52.402H15.7579V57.628C15.7579 58.124 15.6779 58.584 15.5179 59.008C15.3619 59.432 15.1359 59.8 14.8399 60.112C14.5479 60.42 14.1899 60.662 13.7659 60.838C13.3419 61.014 12.8659 61.102 12.3379 61.102C11.8099 61.102 11.3339 61.014 10.9099 60.838C10.4859 60.662 10.1259 60.42 9.82988 60.112C9.53388 59.8 9.30588 59.432 9.14588 59.008C8.98988 58.584 8.91188 58.124 8.91188 57.628V52.402H10.0699V57.622C10.0699 57.982 10.1199 58.312 10.2199 58.612C10.3239 58.912 10.4719 59.17 10.6639 59.386C10.8599 59.602 11.0979 59.772 11.3779 59.896C11.6619 60.016 11.9819 60.076 12.3379 60.076ZM22.2421 53.746C22.2061 53.806 22.1661 53.852 22.1221 53.884C22.0821 53.912 22.0321 53.926 21.9721 53.926C21.9041 53.926 21.8241 53.892 21.7321 53.824C21.6401 53.756 21.5241 53.682 21.3841 53.602C21.2481 53.518 21.0821 53.442 20.8861 53.374C20.6941 53.306 20.4601 53.272 20.1841 53.272C19.9241 53.272 19.6941 53.308 19.4941 53.38C19.2981 53.448 19.1321 53.542 18.9961 53.662C18.8641 53.782 18.7641 53.924 18.6961 54.088C18.6281 54.248 18.5941 54.422 18.5941 54.61C18.5941 54.85 18.6521 55.05 18.7681 55.21C18.8881 55.366 19.0441 55.5 19.2361 55.612C19.4321 55.724 19.6521 55.822 19.8961 55.906C20.1441 55.986 20.3961 56.07 20.6521 56.158C20.9121 56.246 21.1641 56.346 21.4081 56.458C21.6561 56.566 21.8761 56.704 22.0681 56.872C22.2641 57.04 22.4201 57.246 22.5361 57.49C22.6561 57.734 22.7161 58.034 22.7161 58.39C22.7161 58.766 22.6521 59.12 22.5241 59.452C22.3961 59.78 22.2081 60.066 21.9601 60.31C21.7161 60.554 21.4141 60.746 21.0541 60.886C20.6981 61.026 20.2921 61.096 19.8361 61.096C19.2761 61.096 18.7681 60.996 18.3121 60.796C17.8561 60.592 17.4661 60.318 17.1421 59.974L17.4781 59.422C17.5101 59.378 17.5481 59.342 17.5921 59.314C17.6401 59.282 17.6921 59.266 17.7481 59.266C17.8001 59.266 17.8581 59.288 17.9221 59.332C17.9901 59.372 18.0661 59.424 18.1501 59.488C18.2341 59.552 18.3301 59.622 18.4381 59.698C18.5461 59.774 18.6681 59.844 18.8041 59.908C18.9441 59.972 19.1021 60.026 19.2781 60.07C19.4541 60.11 19.6521 60.13 19.8721 60.13C20.1481 60.13 20.3941 60.092 20.6101 60.016C20.8261 59.94 21.0081 59.834 21.1561 59.698C21.3081 59.558 21.4241 59.392 21.5041 59.2C21.5841 59.008 21.6241 58.794 21.6241 58.558C21.6241 58.298 21.5641 58.086 21.4441 57.922C21.3281 57.754 21.1741 57.614 20.9821 57.502C20.7901 57.39 20.5701 57.296 20.3221 57.22C20.0741 57.14 19.8221 57.06 19.5661 56.98C19.3101 56.896 19.0581 56.8 18.8101 56.692C18.5621 56.584 18.3421 56.444 18.1501 56.272C17.9581 56.1 17.8021 55.886 17.6821 55.63C17.5661 55.37 17.5081 55.05 17.5081 54.67C17.5081 54.366 17.5661 54.072 17.6821 53.788C17.8021 53.504 17.9741 53.252 18.1981 53.032C18.4261 52.812 18.7041 52.636 19.0321 52.504C19.3641 52.372 19.7441 52.306 20.1721 52.306C20.6521 52.306 21.0881 52.382 21.4801 52.534C21.8761 52.686 22.2241 52.906 22.5241 53.194L22.2421 53.746ZM31.3437 56.866V60.166C30.9117 60.478 30.4497 60.712 29.9577 60.868C29.4697 61.02 28.9337 61.096 28.3497 61.096C27.6577 61.096 27.0337 60.99 26.4777 60.778C25.9217 60.562 25.4457 60.262 25.0497 59.878C24.6577 59.49 24.3557 59.026 24.1437 58.486C23.9317 57.946 23.8257 57.352 23.8257 56.704C23.8257 56.048 23.9277 55.45 24.1317 54.91C24.3397 54.37 24.6337 53.908 25.0137 53.524C25.3937 53.136 25.8557 52.836 26.3997 52.624C26.9437 52.412 27.5517 52.306 28.2237 52.306C28.5637 52.306 28.8797 52.332 29.1717 52.384C29.4637 52.432 29.7337 52.504 29.9817 52.6C30.2297 52.692 30.4597 52.806 30.6717 52.942C30.8837 53.074 31.0817 53.224 31.2657 53.392L30.9357 53.92C30.8837 54 30.8157 54.052 30.7317 54.076C30.6517 54.096 30.5617 54.076 30.4617 54.016C30.3657 53.96 30.2557 53.892 30.1317 53.812C30.0077 53.732 29.8557 53.656 29.6757 53.584C29.4997 53.508 29.2897 53.444 29.0457 53.392C28.8057 53.34 28.5197 53.314 28.1877 53.314C27.7037 53.314 27.2657 53.394 26.8737 53.554C26.4817 53.71 26.1477 53.936 25.8717 54.232C25.5957 54.524 25.3837 54.88 25.2357 55.3C25.0877 55.716 25.0137 56.184 25.0137 56.704C25.0137 57.244 25.0897 57.728 25.2417 58.156C25.3977 58.58 25.6177 58.942 25.9017 59.242C26.1897 59.538 26.5377 59.764 26.9457 59.92C27.3537 60.076 27.8117 60.154 28.3197 60.154C28.7197 60.154 29.0737 60.11 29.3817 60.022C29.6937 59.93 29.9977 59.804 30.2937 59.644V57.754H28.9557C28.8797 57.754 28.8177 57.732 28.7697 57.688C28.7257 57.644 28.7037 57.59 28.7037 57.526V56.866H31.3437ZM37.621 57.808L36.271 54.31C36.231 54.206 36.189 54.086 36.145 53.95C36.101 53.81 36.059 53.662 36.019 53.506C35.935 53.83 35.849 54.1 35.761 54.316L34.411 57.808H37.621ZM40.045 61H39.145C39.041 61 38.957 60.974 38.893 60.922C38.829 60.87 38.781 60.804 38.749 60.724L37.945 58.648H34.087L33.283 60.724C33.259 60.796 33.213 60.86 33.145 60.916C33.077 60.972 32.993 61 32.893 61H31.993L35.431 52.402H36.607L40.045 61ZM44.1941 60.076C44.5261 60.076 44.8121 60.038 45.0521 59.962C45.2921 59.886 45.4881 59.78 45.6401 59.644C45.7961 59.504 45.9101 59.34 45.9821 59.152C46.0541 58.96 46.0901 58.75 46.0901 58.522C46.0901 58.078 45.9321 57.728 45.6161 57.472C45.3001 57.212 44.8261 57.082 44.1941 57.082H42.3341V60.076H44.1941ZM42.3341 53.32V56.254H43.8701C44.1981 56.254 44.4821 56.218 44.7221 56.146C44.9661 56.074 45.1661 55.974 45.3221 55.846C45.4821 55.718 45.6001 55.564 45.6761 55.384C45.7521 55.2 45.7901 55 45.7901 54.784C45.7901 54.276 45.6381 53.906 45.3341 53.674C45.0301 53.438 44.5581 53.32 43.9181 53.32H42.3341ZM43.9181 52.402C44.4461 52.402 44.9001 52.454 45.2801 52.558C45.6641 52.662 45.9781 52.81 46.2221 53.002C46.4701 53.194 46.6521 53.43 46.7681 53.71C46.8841 53.986 46.9421 54.298 46.9421 54.646C46.9421 54.858 46.9081 55.062 46.8401 55.258C46.7761 55.45 46.6781 55.63 46.5461 55.798C46.4141 55.966 46.2461 56.118 46.0421 56.254C45.8421 56.386 45.6061 56.494 45.3341 56.578C45.9661 56.698 46.4401 56.924 46.7561 57.256C47.0761 57.584 47.2361 58.016 47.2361 58.552C47.2361 58.916 47.1681 59.248 47.0321 59.548C46.9001 59.848 46.7041 60.106 46.4441 60.322C46.1881 60.538 45.8721 60.706 45.4961 60.826C45.1201 60.942 44.6921 61 44.2121 61H41.1761V52.402H43.9181ZM54.2379 60.052L54.2319 61H48.9339V52.402H54.2319V53.35H50.0979V56.206H53.4459V57.118H50.0979V60.052H54.2379ZM62.8257 52.402V61H62.2437C62.1517 61 62.0737 60.984 62.0097 60.952C61.9497 60.92 61.8897 60.866 61.8297 60.79L56.8557 54.31C56.8637 54.41 56.8697 54.508 56.8737 54.604C56.8777 54.7 56.8797 54.79 56.8797 54.874V61H55.8597V52.402H56.4597C56.5117 52.402 56.5557 52.406 56.5917 52.414C56.6277 52.418 56.6597 52.428 56.6877 52.444C56.7157 52.456 56.7437 52.476 56.7717 52.504C56.7997 52.528 56.8297 52.56 56.8617 52.6L61.8357 59.074C61.8277 58.97 61.8197 58.87 61.8117 58.774C61.8077 58.674 61.8057 58.58 61.8057 58.492V52.402H62.8257Z" fill="white"/>
<path d="M2.262 102.35V105.356H5.796V106.304H2.262V110H1.098V101.402H6.396V102.35H2.262ZM9.04716 110H7.88316V101.402H9.04716V110ZM17.8044 110H16.6524C16.5644 110 16.4944 109.978 16.4424 109.934C16.3944 109.886 16.3544 109.834 16.3224 109.778L14.0184 106.166C13.9864 106.262 13.9504 106.344 13.9104 106.412L11.6664 109.778C11.6264 109.834 11.5824 109.886 11.5344 109.934C11.4904 109.978 11.4284 110 11.3484 110H10.2684L13.2264 105.584L10.3884 101.402H11.5464C11.6304 101.402 11.6924 101.416 11.7324 101.444C11.7724 101.472 11.8084 101.512 11.8404 101.564L14.0844 105.008C14.1124 104.924 14.1544 104.832 14.2104 104.732L16.3284 101.588C16.3604 101.532 16.3984 101.488 16.4424 101.456C16.4864 101.42 16.5384 101.402 16.5984 101.402H17.7084L14.8584 105.53L17.8044 110ZM20.1974 105.17H20.6354C20.7874 105.17 20.9094 105.152 21.0014 105.116C21.0934 105.076 21.1774 105.01 21.2534 104.918L24.1154 101.678C24.1954 101.574 24.2794 101.502 24.3674 101.462C24.4554 101.422 24.5634 101.402 24.6914 101.402H25.6754L22.3994 105.104C22.3194 105.2 22.2414 105.28 22.1654 105.344C22.0934 105.404 22.0154 105.454 21.9314 105.494C22.0394 105.53 22.1374 105.584 22.2254 105.656C22.3134 105.724 22.3994 105.814 22.4834 105.926L25.9034 110H24.8954C24.8194 110 24.7534 109.996 24.6974 109.988C24.6454 109.976 24.5994 109.96 24.5594 109.94C24.5194 109.916 24.4834 109.89 24.4514 109.862C24.4234 109.83 24.3954 109.794 24.3674 109.754L21.4034 106.34C21.3234 106.24 21.2374 106.17 21.1454 106.13C21.0534 106.086 20.9134 106.064 20.7254 106.064H20.1974V110H19.0394V101.402H20.1974V105.17ZM34.4131 105.704C34.4131 106.348 34.3111 106.94 34.1071 107.48C33.9031 108.016 33.6151 108.478 33.2431 108.866C32.8711 109.254 32.4231 109.556 31.8991 109.772C31.3791 109.984 30.8031 110.09 30.1711 110.09C29.5391 110.09 28.9631 109.984 28.4431 109.772C27.9231 109.556 27.4771 109.254 27.1051 108.866C26.7331 108.478 26.4451 108.016 26.2411 107.48C26.0371 106.94 25.9351 106.348 25.9351 105.704C25.9351 105.06 26.0371 104.47 26.2411 103.934C26.4451 103.394 26.7331 102.93 27.1051 102.542C27.4771 102.15 27.9231 101.846 28.4431 101.63C28.9631 101.414 29.5391 101.306 30.1711 101.306C30.8031 101.306 31.3791 101.414 31.8991 101.63C32.4231 101.846 32.8711 102.15 33.2431 102.542C33.6151 102.93 33.9031 103.394 34.1071 103.934C34.3111 104.47 34.4131 105.06 34.4131 105.704ZM33.2191 105.704C33.2191 105.176 33.1471 104.702 33.0031 104.282C32.8591 103.862 32.6551 103.508 32.3911 103.22C32.1271 102.928 31.8071 102.704 31.4311 102.548C31.0551 102.392 30.6351 102.314 30.1711 102.314C29.7111 102.314 29.2931 102.392 28.9171 102.548C28.5411 102.704 28.2191 102.928 27.9511 103.22C27.6871 103.508 27.4831 103.862 27.3391 104.282C27.1951 104.702 27.1231 105.176 27.1231 105.704C27.1231 106.232 27.1951 106.706 27.3391 107.126C27.4831 107.542 27.6871 107.896 27.9511 108.188C28.2191 108.476 28.5411 108.698 28.9171 108.854C29.2931 109.006 29.7111 109.082 30.1711 109.082C30.6351 109.082 31.0551 109.006 31.4311 108.854C31.8071 108.698 32.1271 108.476 32.3911 108.188C32.6551 107.896 32.8591 107.542 33.0031 107.126C33.1471 106.706 33.2191 106.232 33.2191 105.704ZM40.4765 102.746C40.4405 102.806 40.4005 102.852 40.3565 102.884C40.3165 102.912 40.2665 102.926 40.2065 102.926C40.1385 102.926 40.0585 102.892 39.9665 102.824C39.8745 102.756 39.7585 102.682 39.6185 102.602C39.4825 102.518 39.3165 102.442 39.1205 102.374C38.9285 102.306 38.6945 102.272 38.4185 102.272C38.1585 102.272 37.9285 102.308 37.7285 102.38C37.5325 102.448 37.3665 102.542 37.2305 102.662C37.0985 102.782 36.9985 102.924 36.9305 103.088C36.8625 103.248 36.8285 103.422 36.8285 103.61C36.8285 103.85 36.8865 104.05 37.0025 104.21C37.1225 104.366 37.2785 104.5 37.4705 104.612C37.6665 104.724 37.8865 104.822 38.1305 104.906C38.3785 104.986 38.6305 105.07 38.8865 105.158C39.1465 105.246 39.3985 105.346 39.6425 105.458C39.8905 105.566 40.1105 105.704 40.3025 105.872C40.4985 106.04 40.6545 106.246 40.7705 106.49C40.8905 106.734 40.9505 107.034 40.9505 107.39C40.9505 107.766 40.8865 108.12 40.7585 108.452C40.6305 108.78 40.4425 109.066 40.1945 109.31C39.9505 109.554 39.6485 109.746 39.2885 109.886C38.9325 110.026 38.5265 110.096 38.0705 110.096C37.5105 110.096 37.0025 109.996 36.5465 109.796C36.0905 109.592 35.7005 109.318 35.3765 108.974L35.7125 108.422C35.7445 108.378 35.7825 108.342 35.8265 108.314C35.8745 108.282 35.9265 108.266 35.9825 108.266C36.0345 108.266 36.0925 108.288 36.1565 108.332C36.2245 108.372 36.3005 108.424 36.3845 108.488C36.4685 108.552 36.5645 108.622 36.6725 108.698C36.7805 108.774 36.9025 108.844 37.0385 108.908C37.1785 108.972 37.3365 109.026 37.5125 109.07C37.6885 109.11 37.8865 109.13 38.1065 109.13C38.3825 109.13 38.6285 109.092 38.8445 109.016C39.0605 108.94 39.2425 108.834 39.3905 108.698C39.5425 108.558 39.6585 108.392 39.7385 108.2C39.8185 108.008 39.8585 107.794 39.8585 107.558C39.8585 107.298 39.7985 107.086 39.6785 106.922C39.5625 106.754 39.4085 106.614 39.2165 106.502C39.0245 106.39 38.8045 106.296 38.5565 106.22C38.3085 106.14 38.0565 106.06 37.8005 105.98C37.5445 105.896 37.2925 105.8 37.0445 105.692C36.7965 105.584 36.5765 105.444 36.3845 105.272C36.1925 105.1 36.0365 104.886 35.9165 104.63C35.8005 104.37 35.7425 104.05 35.7425 103.67C35.7425 103.366 35.8005 103.072 35.9165 102.788C36.0365 102.504 36.2085 102.252 36.4325 102.032C36.6605 101.812 36.9385 101.636 37.2665 101.504C37.5985 101.372 37.9785 101.306 38.4065 101.306C38.8865 101.306 39.3225 101.382 39.7145 101.534C40.1105 101.686 40.4585 101.906 40.7585 102.194L40.4765 102.746ZM48.4081 102.38H45.6241V110H44.4661V102.38H41.6761V101.402H48.4081V102.38ZM54.9879 109.052L54.9819 110H49.6839V101.402H54.9819V102.35H50.8479V105.206H54.1959V106.118H50.8479V109.052H54.9879ZM63.5757 101.402V110H62.9937C62.9017 110 62.8237 109.984 62.7597 109.952C62.6997 109.92 62.6397 109.866 62.5797 109.79L57.6057 103.31C57.6137 103.41 57.6197 103.508 57.6237 103.604C57.6277 103.7 57.6297 103.79 57.6297 103.874V110H56.6097V101.402H57.2097C57.2617 101.402 57.3057 101.406 57.3417 101.414C57.3777 101.418 57.4097 101.428 57.4377 101.444C57.4657 101.456 57.4937 101.476 57.5217 101.504C57.5497 101.528 57.5797 101.56 57.6117 101.6L62.5857 108.074C62.5777 107.97 62.5697 107.87 62.5617 107.774C62.5577 107.674 62.5557 107.58 62.5557 107.492V101.402H63.5757Z" fill="white"/>
<rect y="21" width="174.16" height="14" fill="#DCB136"/>
<rect y="70" width="137" height="14" fill="#FD0E81"/>
<rect y="119" width="63" height="14" fill="#C4C4C4"/>
<path d="M181.715 27.31C182.275 27.19 182.79 27.13 183.26 27.13C183.82 27.13 184.315 27.2125 184.745 27.3775C185.175 27.5425 185.533 27.77 185.818 28.06C186.108 28.35 186.325 28.6925 186.47 29.0875C186.62 29.4825 186.695 29.9125 186.695 30.3775C186.695 30.9475 186.595 31.4625 186.395 31.9225C186.2 32.3825 185.928 32.7775 185.578 33.1075C185.233 33.4325 184.825 33.6825 184.355 33.8575C183.885 34.0325 183.378 34.12 182.833 34.12C182.518 34.12 182.215 34.0875 181.925 34.0225C181.635 33.9625 181.363 33.88 181.108 33.775C180.858 33.67 180.625 33.55 180.41 33.415C180.195 33.28 180.005 33.1375 179.84 32.9875L180.253 32.4175C180.343 32.2875 180.46 32.2225 180.605 32.2225C180.705 32.2225 180.818 32.2625 180.943 32.3425C181.068 32.4175 181.22 32.5025 181.4 32.5975C181.58 32.6925 181.79 32.78 182.03 32.86C182.275 32.935 182.565 32.9725 182.9 32.9725C183.275 32.9725 183.613 32.9125 183.913 32.7925C184.213 32.6725 184.47 32.5025 184.685 32.2825C184.9 32.0575 185.065 31.79 185.18 31.48C185.295 31.17 185.353 30.8225 185.353 30.4375C185.353 30.1025 185.303 29.8 185.203 29.53C185.108 29.26 184.96 29.03 184.76 28.84C184.565 28.65 184.32 28.5025 184.025 28.3975C183.73 28.2925 183.385 28.24 182.99 28.24C182.72 28.24 182.438 28.2625 182.143 28.3075C181.853 28.3525 181.555 28.425 181.25 28.525L180.41 28.2775L181.273 23.2525H186.365V23.8375C186.365 24.0275 186.305 24.185 186.185 24.31C186.07 24.43 185.87 24.49 185.585 24.49H182.21L181.715 27.31ZM192.036 33.01C192.396 33.01 192.721 32.9525 193.011 32.8375C193.306 32.7225 193.556 32.5625 193.761 32.3575C193.971 32.1525 194.131 31.91 194.241 31.63C194.356 31.35 194.414 31.045 194.414 30.715C194.414 30.365 194.359 30.05 194.249 29.77C194.139 29.485 193.981 29.245 193.776 29.05C193.576 28.85 193.336 28.6975 193.056 28.5925C192.776 28.4875 192.469 28.435 192.134 28.435C191.774 28.435 191.449 28.4975 191.159 28.6225C190.869 28.7425 190.621 28.9075 190.416 29.1175C190.216 29.3225 190.061 29.5625 189.951 29.8375C189.846 30.1075 189.794 30.39 189.794 30.685C189.794 31.03 189.844 31.345 189.944 31.63C190.044 31.915 190.189 32.16 190.379 32.365C190.574 32.57 190.809 32.73 191.084 32.845C191.364 32.955 191.681 33.01 192.036 33.01ZM191.256 27.28C191.161 27.4 191.069 27.5175 190.979 27.6325C190.894 27.7425 190.811 27.8525 190.731 27.9625C190.986 27.7875 191.266 27.6525 191.571 27.5575C191.876 27.4625 192.209 27.415 192.569 27.415C193.004 27.415 193.414 27.4875 193.799 27.6325C194.184 27.7725 194.519 27.98 194.804 28.255C195.094 28.525 195.324 28.86 195.494 29.26C195.664 29.655 195.749 30.1075 195.749 30.6175C195.749 31.1125 195.659 31.5725 195.479 31.9975C195.299 32.4225 195.046 32.7925 194.721 33.1075C194.401 33.4225 194.014 33.67 193.559 33.85C193.109 34.03 192.611 34.12 192.066 34.12C191.526 34.12 191.036 34.035 190.596 33.865C190.156 33.69 189.781 33.445 189.471 33.13C189.166 32.81 188.929 32.425 188.759 31.975C188.594 31.52 188.511 31.0125 188.511 30.4525C188.511 29.9825 188.614 29.4825 188.819 28.9525C189.029 28.4175 189.361 27.8475 189.816 27.2425L192.546 23.575C192.616 23.485 192.711 23.41 192.831 23.35C192.956 23.285 193.099 23.2525 193.259 23.2525H194.444L191.256 27.28ZM201.817 25.8475C201.817 26.2675 201.752 26.645 201.622 26.98C201.492 27.31 201.317 27.59 201.097 27.82C200.882 28.045 200.63 28.2175 200.34 28.3375C200.055 28.4575 199.752 28.5175 199.432 28.5175C199.097 28.5175 198.785 28.4575 198.495 28.3375C198.205 28.2175 197.952 28.045 197.737 27.82C197.527 27.59 197.362 27.31 197.242 26.98C197.122 26.645 197.062 26.2675 197.062 25.8475C197.062 25.4175 197.122 25.035 197.242 24.7C197.362 24.365 197.527 24.0825 197.737 23.8525C197.952 23.6225 198.205 23.4475 198.495 23.3275C198.785 23.2075 199.097 23.1475 199.432 23.1475C199.772 23.1475 200.087 23.2075 200.377 23.3275C200.667 23.4475 200.92 23.6225 201.135 23.8525C201.35 24.0825 201.517 24.365 201.637 24.7C201.757 25.035 201.817 25.4175 201.817 25.8475ZM200.782 25.8475C200.782 25.5175 200.747 25.2375 200.677 25.0075C200.607 24.7775 200.51 24.59 200.385 24.445C200.265 24.295 200.122 24.1875 199.957 24.1225C199.792 24.0575 199.617 24.025 199.432 24.025C199.247 24.025 199.075 24.0575 198.915 24.1225C198.755 24.1875 198.615 24.295 198.495 24.445C198.375 24.59 198.28 24.7775 198.21 25.0075C198.14 25.2375 198.105 25.5175 198.105 25.8475C198.105 26.1725 198.14 26.45 198.21 26.68C198.28 26.905 198.375 27.09 198.495 27.235C198.615 27.375 198.755 27.4775 198.915 27.5425C199.075 27.6025 199.247 27.6325 199.432 27.6325C199.617 27.6325 199.792 27.6025 199.957 27.5425C200.122 27.4775 200.265 27.375 200.385 27.235C200.51 27.09 200.607 26.905 200.677 26.68C200.747 26.45 200.782 26.1725 200.782 25.8475ZM205.62 23.4775C205.67 23.4175 205.727 23.365 205.792 23.32C205.862 23.275 205.955 23.2525 206.07 23.2525H207.037L199.177 33.7825C199.132 33.8475 199.075 33.9 199.005 33.94C198.935 33.98 198.85 34 198.75 34H197.767L205.62 23.4775ZM207.765 31.465C207.765 31.885 207.7 32.26 207.57 32.59C207.44 32.92 207.265 33.2 207.045 33.43C206.83 33.655 206.577 33.8275 206.287 33.9475C206.002 34.0675 205.7 34.1275 205.38 34.1275C205.04 34.1275 204.725 34.0675 204.435 33.9475C204.15 33.8275 203.9 33.655 203.685 33.43C203.475 33.2 203.31 32.92 203.19 32.59C203.07 32.26 203.01 31.885 203.01 31.465C203.01 31.035 203.07 30.6525 203.19 30.3175C203.31 29.9775 203.475 29.6925 203.685 29.4625C203.9 29.2325 204.15 29.0575 204.435 28.9375C204.725 28.8175 205.04 28.7575 205.38 28.7575C205.715 28.7575 206.027 28.8175 206.317 28.9375C206.612 29.0575 206.865 29.2325 207.075 29.4625C207.29 29.6925 207.457 29.9775 207.577 30.3175C207.702 30.6525 207.765 31.035 207.765 31.465ZM206.73 31.465C206.73 31.135 206.695 30.855 206.625 30.625C206.555 30.39 206.457 30.2 206.332 30.055C206.212 29.91 206.07 29.805 205.905 29.74C205.74 29.675 205.565 29.6425 205.38 29.6425C205.195 29.6425 205.02 29.675 204.855 29.74C204.695 29.805 204.555 29.91 204.435 30.055C204.315 30.2 204.22 30.39 204.15 30.625C204.085 30.855 204.052 31.135 204.052 31.465C204.052 31.79 204.085 32.065 204.15 32.29C204.22 32.515 204.315 32.7 204.435 32.845C204.555 32.985 204.695 33.0875 204.855 33.1525C205.02 33.2125 205.195 33.2425 205.38 33.2425C205.565 33.2425 205.74 33.2125 205.905 33.1525C206.07 33.0875 206.212 32.985 206.332 32.845C206.457 32.7 206.555 32.515 206.625 32.29C206.695 32.065 206.73 31.79 206.73 31.465Z" fill="white"/>
<path d="M149.475 77.1225V72.69C149.475 72.56 149.48 72.4175 149.49 72.2625C149.5 72.1075 149.515 71.95 149.535 71.79L145.62 77.1225H149.475ZM152.273 77.1225V77.8875C152.273 77.9675 152.248 78.035 152.198 78.09C152.153 78.145 152.08 78.1725 151.98 78.1725H150.645V81H149.475V78.1725H144.705C144.605 78.1725 144.518 78.145 144.443 78.09C144.373 78.03 144.328 77.9575 144.308 77.8725L144.173 77.19L149.4 70.2525H150.645V77.1225H152.273ZM158.176 77.1225V72.69C158.176 72.56 158.181 72.4175 158.191 72.2625C158.201 72.1075 158.216 71.95 158.236 71.79L154.321 77.1225H158.176ZM160.974 77.1225V77.8875C160.974 77.9675 160.949 78.035 160.899 78.09C160.854 78.145 160.781 78.1725 160.681 78.1725H159.346V81H158.176V78.1725H153.406C153.306 78.1725 153.219 78.145 153.144 78.09C153.074 78.03 153.029 77.9575 153.009 77.8725L152.874 77.19L158.101 70.2525H159.346V77.1225H160.974ZM166.817 72.8475C166.817 73.2675 166.752 73.645 166.622 73.98C166.492 74.31 166.317 74.59 166.097 74.82C165.882 75.045 165.63 75.2175 165.34 75.3375C165.055 75.4575 164.752 75.5175 164.432 75.5175C164.097 75.5175 163.785 75.4575 163.495 75.3375C163.205 75.2175 162.952 75.045 162.737 74.82C162.527 74.59 162.362 74.31 162.242 73.98C162.122 73.645 162.062 73.2675 162.062 72.8475C162.062 72.4175 162.122 72.035 162.242 71.7C162.362 71.365 162.527 71.0825 162.737 70.8525C162.952 70.6225 163.205 70.4475 163.495 70.3275C163.785 70.2075 164.097 70.1475 164.432 70.1475C164.772 70.1475 165.087 70.2075 165.377 70.3275C165.667 70.4475 165.92 70.6225 166.135 70.8525C166.35 71.0825 166.517 71.365 166.637 71.7C166.757 72.035 166.817 72.4175 166.817 72.8475ZM165.782 72.8475C165.782 72.5175 165.747 72.2375 165.677 72.0075C165.607 71.7775 165.51 71.59 165.385 71.445C165.265 71.295 165.122 71.1875 164.957 71.1225C164.792 71.0575 164.617 71.025 164.432 71.025C164.247 71.025 164.075 71.0575 163.915 71.1225C163.755 71.1875 163.615 71.295 163.495 71.445C163.375 71.59 163.28 71.7775 163.21 72.0075C163.14 72.2375 163.105 72.5175 163.105 72.8475C163.105 73.1725 163.14 73.45 163.21 73.68C163.28 73.905 163.375 74.09 163.495 74.235C163.615 74.375 163.755 74.4775 163.915 74.5425C164.075 74.6025 164.247 74.6325 164.432 74.6325C164.617 74.6325 164.792 74.6025 164.957 74.5425C165.122 74.4775 165.265 74.375 165.385 74.235C165.51 74.09 165.607 73.905 165.677 73.68C165.747 73.45 165.782 73.1725 165.782 72.8475ZM170.62 70.4775C170.67 70.4175 170.727 70.365 170.792 70.32C170.862 70.275 170.955 70.2525 171.07 70.2525H172.037L164.177 80.7825C164.132 80.8475 164.075 80.9 164.005 80.94C163.935 80.98 163.85 81 163.75 81H162.767L170.62 70.4775ZM172.765 78.465C172.765 78.885 172.7 79.26 172.57 79.59C172.44 79.92 172.265 80.2 172.045 80.43C171.83 80.655 171.577 80.8275 171.287 80.9475C171.002 81.0675 170.7 81.1275 170.38 81.1275C170.04 81.1275 169.725 81.0675 169.435 80.9475C169.15 80.8275 168.9 80.655 168.685 80.43C168.475 80.2 168.31 79.92 168.19 79.59C168.07 79.26 168.01 78.885 168.01 78.465C168.01 78.035 168.07 77.6525 168.19 77.3175C168.31 76.9775 168.475 76.6925 168.685 76.4625C168.9 76.2325 169.15 76.0575 169.435 75.9375C169.725 75.8175 170.04 75.7575 170.38 75.7575C170.715 75.7575 171.027 75.8175 171.317 75.9375C171.612 76.0575 171.865 76.2325 172.075 76.4625C172.29 76.6925 172.457 76.9775 172.577 77.3175C172.702 77.6525 172.765 78.035 172.765 78.465ZM171.73 78.465C171.73 78.135 171.695 77.855 171.625 77.625C171.555 77.39 171.457 77.2 171.332 77.055C171.212 76.91 171.07 76.805 170.905 76.74C170.74 76.675 170.565 76.6425 170.38 76.6425C170.195 76.6425 170.02 76.675 169.855 76.74C169.695 76.805 169.555 76.91 169.435 77.055C169.315 77.2 169.22 77.39 169.15 77.625C169.085 77.855 169.052 78.135 169.052 78.465C169.052 78.79 169.085 79.065 169.15 79.29C169.22 79.515 169.315 79.7 169.435 79.845C169.555 79.985 169.695 80.0875 169.855 80.1525C170.02 80.2125 170.195 80.2425 170.38 80.2425C170.565 80.2425 170.74 80.2125 170.905 80.1525C171.07 80.0875 171.212 79.985 171.332 79.845C171.457 79.7 171.555 79.515 171.625 79.29C171.695 79.065 171.73 78.79 171.73 78.465Z" fill="white"/>
<path d="M75.4025 128.732C75.5475 128.732 75.6625 128.775 75.7475 128.86C75.8325 128.945 75.875 129.055 75.875 129.19V130H68.705V129.542C68.705 129.447 68.725 129.35 68.765 129.25C68.805 129.15 68.8675 129.057 68.9525 128.972L72.395 125.515C72.68 125.225 72.94 124.947 73.175 124.682C73.41 124.412 73.61 124.142 73.775 123.872C73.94 123.602 74.0675 123.33 74.1575 123.055C74.2475 122.775 74.2925 122.477 74.2925 122.162C74.2925 121.847 74.2425 121.572 74.1425 121.337C74.0425 121.097 73.905 120.9 73.73 120.745C73.56 120.59 73.3575 120.475 73.1225 120.4C72.8875 120.32 72.635 120.28 72.365 120.28C72.09 120.28 71.8375 120.32 71.6075 120.4C71.3775 120.48 71.1725 120.592 70.9925 120.737C70.8175 120.877 70.67 121.045 70.55 121.24C70.43 121.435 70.345 121.65 70.295 121.885C70.235 122.06 70.1525 122.177 70.0475 122.237C69.9475 122.292 69.805 122.307 69.62 122.282L68.9225 122.162C68.9925 121.672 69.1275 121.24 69.3275 120.865C69.5325 120.485 69.7875 120.167 70.0925 119.912C70.4025 119.657 70.755 119.465 71.15 119.335C71.545 119.2 71.9725 119.132 72.4325 119.132C72.8875 119.132 73.3125 119.2 73.7075 119.335C74.1025 119.47 74.445 119.667 74.735 119.927C75.025 120.182 75.2525 120.495 75.4175 120.865C75.5825 121.235 75.665 121.655 75.665 122.125C75.665 122.525 75.605 122.897 75.485 123.242C75.365 123.582 75.2025 123.907 74.9975 124.217C74.7925 124.527 74.555 124.83 74.285 125.125C74.02 125.42 73.7375 125.717 73.4375 126.017L70.6025 128.912C70.8025 128.857 71.005 128.815 71.21 128.785C71.415 128.75 71.6125 128.732 71.8025 128.732H75.4025ZM84.1037 128.732C84.2487 128.732 84.3637 128.775 84.4487 128.86C84.5337 128.945 84.5762 129.055 84.5762 129.19V130H77.4062V129.542C77.4062 129.447 77.4262 129.35 77.4662 129.25C77.5062 129.15 77.5687 129.057 77.6537 128.972L81.0962 125.515C81.3812 125.225 81.6412 124.947 81.8762 124.682C82.1112 124.412 82.3112 124.142 82.4762 123.872C82.6412 123.602 82.7687 123.33 82.8587 123.055C82.9487 122.775 82.9937 122.477 82.9937 122.162C82.9937 121.847 82.9437 121.572 82.8437 121.337C82.7437 121.097 82.6062 120.9 82.4312 120.745C82.2612 120.59 82.0587 120.475 81.8237 120.4C81.5887 120.32 81.3362 120.28 81.0662 120.28C80.7912 120.28 80.5387 120.32 80.3087 120.4C80.0787 120.48 79.8737 120.592 79.6937 120.737C79.5187 120.877 79.3712 121.045 79.2512 121.24C79.1312 121.435 79.0462 121.65 78.9962 121.885C78.9362 122.06 78.8537 122.177 78.7487 122.237C78.6487 122.292 78.5062 122.307 78.3212 122.282L77.6237 122.162C77.6937 121.672 77.8287 121.24 78.0287 120.865C78.2337 120.485 78.4887 120.167 78.7937 119.912C79.1037 119.657 79.4562 119.465 79.8512 119.335C80.2462 119.2 80.6737 119.132 81.1337 119.132C81.5887 119.132 82.0137 119.2 82.4087 119.335C82.8037 119.47 83.1462 119.667 83.4362 119.927C83.7262 120.182 83.9537 120.495 84.1187 120.865C84.2837 121.235 84.3662 121.655 84.3662 122.125C84.3662 122.525 84.3062 122.897 84.1862 123.242C84.0662 123.582 83.9037 123.907 83.6987 124.217C83.4937 124.527 83.2562 124.83 82.9862 125.125C82.7212 125.42 82.4387 125.717 82.1387 126.017L79.3037 128.912C79.5037 128.857 79.7062 128.815 79.9112 128.785C80.1162 128.75 80.3137 128.732 80.5037 128.732H84.1037ZM90.8173 121.847C90.8173 122.267 90.7523 122.645 90.6223 122.98C90.4923 123.31 90.3173 123.59 90.0973 123.82C89.8823 124.045 89.6298 124.217 89.3398 124.337C89.0548 124.457 88.7523 124.517 88.4323 124.517C88.0973 124.517 87.7848 124.457 87.4948 124.337C87.2048 124.217 86.9523 124.045 86.7373 123.82C86.5273 123.59 86.3623 123.31 86.2423 122.98C86.1223 122.645 86.0623 122.267 86.0623 121.847C86.0623 121.417 86.1223 121.035 86.2423 120.7C86.3623 120.365 86.5273 120.082 86.7373 119.852C86.9523 119.622 87.2048 119.447 87.4948 119.327C87.7848 119.207 88.0973 119.147 88.4323 119.147C88.7723 119.147 89.0873 119.207 89.3773 119.327C89.6673 119.447 89.9198 119.622 90.1348 119.852C90.3498 120.082 90.5173 120.365 90.6373 120.7C90.7573 121.035 90.8173 121.417 90.8173 121.847ZM89.7823 121.847C89.7823 121.517 89.7473 121.238 89.6773 121.007C89.6073 120.777 89.5098 120.59 89.3848 120.445C89.2648 120.295 89.1223 120.187 88.9573 120.122C88.7923 120.057 88.6173 120.025 88.4323 120.025C88.2473 120.025 88.0748 120.057 87.9148 120.122C87.7548 120.187 87.6148 120.295 87.4948 120.445C87.3748 120.59 87.2798 120.777 87.2098 121.007C87.1398 121.238 87.1048 121.517 87.1048 121.847C87.1048 122.172 87.1398 122.45 87.2098 122.68C87.2798 122.905 87.3748 123.09 87.4948 123.235C87.6148 123.375 87.7548 123.477 87.9148 123.542C88.0748 123.602 88.2473 123.632 88.4323 123.632C88.6173 123.632 88.7923 123.602 88.9573 123.542C89.1223 123.477 89.2648 123.375 89.3848 123.235C89.5098 123.09 89.6073 122.905 89.6773 122.68C89.7473 122.45 89.7823 122.172 89.7823 121.847ZM94.6198 119.477C94.6698 119.417 94.7273 119.365 94.7923 119.32C94.8623 119.275 94.9548 119.252 95.0698 119.252H96.0373L88.1773 129.782C88.1323 129.847 88.0748 129.9 88.0048 129.94C87.9348 129.98 87.8498 130 87.7498 130H86.7673L94.6198 119.477ZM96.7648 127.465C96.7648 127.885 96.6998 128.26 96.5698 128.59C96.4398 128.92 96.2648 129.2 96.0448 129.43C95.8298 129.655 95.5773 129.827 95.2873 129.947C95.0023 130.068 94.6998 130.128 94.3798 130.128C94.0398 130.128 93.7248 130.068 93.4348 129.947C93.1498 129.827 92.8998 129.655 92.6848 129.43C92.4748 129.2 92.3098 128.92 92.1898 128.59C92.0698 128.26 92.0098 127.885 92.0098 127.465C92.0098 127.035 92.0698 126.652 92.1898 126.317C92.3098 125.977 92.4748 125.692 92.6848 125.462C92.8998 125.232 93.1498 125.057 93.4348 124.937C93.7248 124.817 94.0398 124.757 94.3798 124.757C94.7148 124.757 95.0273 124.817 95.3173 124.937C95.6123 125.057 95.8648 125.232 96.0748 125.462C96.2898 125.692 96.4573 125.977 96.5773 126.317C96.7023 126.652 96.7648 127.035 96.7648 127.465ZM95.7298 127.465C95.7298 127.135 95.6948 126.855 95.6248 126.625C95.5548 126.39 95.4573 126.2 95.3323 126.055C95.2123 125.91 95.0698 125.805 94.9048 125.74C94.7398 125.675 94.5648 125.642 94.3798 125.642C94.1948 125.642 94.0198 125.675 93.8548 125.74C93.6948 125.805 93.5548 125.91 93.4348 126.055C93.3148 126.2 93.2198 126.39 93.1498 126.625C93.0848 126.855 93.0523 127.135 93.0523 127.465C93.0523 127.79 93.0848 128.065 93.1498 128.29C93.2198 128.515 93.3148 128.7 93.4348 128.845C93.5548 128.985 93.6948 129.087 93.8548 129.152C94.0198 129.212 94.1948 129.242 94.3798 129.242C94.5648 129.242 94.7398 129.212 94.9048 129.152C95.0698 129.087 95.2123 128.985 95.3323 128.845C95.4573 128.7 95.5548 128.515 95.6248 128.29C95.6948 128.065 95.7298 127.79 95.7298 127.465Z" fill="white"/>
</svg>
