<svg width="516" height="123" viewBox="0 0 516 123" fill="none" xmlns="http://www.w3.org/2000/svg">
<g filter="url(#filter0_d)">
<path d="M101.64 55.5712L105.425 52.8142C107.948 51.2062 111.481 48.4492 116.274 45.4622C120.816 42.2462 127.123 39.0292 133.936 35.3532C137.686 33.2767 141.562 31.4355 145.54 29.8402C149.812 27.7704 154.192 25.9298 158.66 24.3262C163.454 22.7182 168.248 20.8802 173.546 19.2722C178.846 17.8942 184.395 16.2852 189.946 14.9072C201.552 12.6072 213.916 10.5422 227.288 10.5422C230.568 10.5422 233.848 10.3122 237.128 10.5422C240.408 10.7722 243.94 11.0012 247.22 11.0012C250.608 11.1426 253.981 11.5266 257.313 12.1502C260.593 12.6092 264.125 13.0692 267.405 13.7582C281.03 16.0582 294.405 20.1912 307.018 24.7862C319.357 29.5049 331.405 34.9518 343.099 41.0982C354.453 46.8422 365.05 52.8152 375.399 58.3292C384.905 63.5758 394.674 68.33 404.668 72.5732C413.343 76.4061 422.391 79.3316 431.668 81.3032C433.939 81.7632 435.957 82.2222 437.976 82.4522C439.995 82.6822 442.265 82.9112 444.284 83.1412C445.293 83.3712 446.302 83.3712 447.312 83.6012H450.34C452.276 83.5632 454.213 83.64 456.14 83.8312C462.728 83.7115 469.301 83.1744 475.82 82.2232C481.371 81.5342 485.66 80.3852 488.688 79.9232C491.716 79.2342 493.482 79.0042 493.482 79.0042C493.482 79.0042 492.22 79.9232 489.697 81.5312C486.13 84.1061 482.328 86.3378 478.34 88.1962C475.817 89.3452 472.789 90.9532 469.509 92.3312C466.229 93.4802 462.444 94.8582 458.409 96.0072C456.391 96.4672 454.12 96.9262 452.101 97.3852C451.092 97.6152 449.83 97.8452 448.821 98.0742C447.559 98.3042 446.55 98.3042 445.289 98.5332C442.766 98.7632 440.495 98.9922 437.972 99.4522C435.449 99.6822 432.926 99.6822 430.15 99.6822C418.741 99.655 407.382 98.1887 396.34 95.3182C384.573 92.1764 373.025 88.2622 361.773 83.6012C350.419 78.7762 339.065 73.7222 327.963 68.6672C316.861 63.6122 305.763 58.5582 294.405 54.4232C291.63 53.2742 288.854 52.3552 286.079 51.4362C283.304 50.5172 280.528 49.3682 277.753 48.6792C274.978 47.9902 272.202 47.0712 269.427 46.1522C266.652 45.4632 263.876 44.7742 260.848 44.0842C249.727 41.5215 238.423 39.8317 227.038 39.0302C216.205 38.2661 205.333 38.1892 194.49 38.8002C189.19 39.0302 184.145 39.7192 179.099 40.1782C174.053 40.6372 169.259 41.5562 164.717 42.2462C159.923 42.7052 155.634 43.8542 151.344 44.5462C147.055 45.4652 143.018 45.9242 139.233 46.8462C131.664 48.6842 125.103 49.8332 119.553 51.4412C114.003 53.0492 109.713 53.9682 106.685 54.6572C104.984 54.8396 103.298 55.1451 101.64 55.5712Z" fill="url(#paint0_linear)"/>
</g>
<g filter="url(#filter1_d)">
<path d="M322.9 13.916C322.9 13.916 327.189 14.925 334.506 17.194C338.291 18.455 342.58 19.716 347.626 21.481C352.672 23.246 358.226 25.264 364.526 27.781C370.581 30.303 377.142 32.825 384.206 35.851C391.018 38.877 398.336 41.903 405.906 44.93C413.223 48.208 421.045 51.23 428.866 54.009C436.558 56.8423 444.498 58.9515 452.583 60.309C460.188 61.6156 467.968 61.5302 475.543 60.057C477.341 59.6699 479.111 59.1645 480.843 58.544C481.6 58.292 482.609 57.787 483.366 57.535L484.628 57.035C484.628 57.035 483.871 57.287 484.376 57.287H484.628L484.88 57.035L485.637 56.783C486.089 56.5882 486.514 56.3336 486.899 56.026C487.151 55.774 487.399 55.774 487.399 55.526C487.963 55.1827 488.473 54.7578 488.913 54.265C489.97 53.2914 490.902 52.1903 491.688 50.987C495.22 45.943 496.482 39.134 495.977 33.087C495.657 27.2751 493.34 21.752 489.417 17.452C485.885 13.417 480.838 11.152 476.297 9.88701C472.09 8.83244 467.765 8.32393 463.429 8.37401C460.478 8.36061 457.529 8.52759 454.598 8.87401C453.594 9.01372 452.583 9.09785 451.57 9.12601C451.57 9.12601 452.579 8.62601 454.345 7.86501C457.081 6.53499 459.959 5.51982 462.924 4.83901C467.574 3.37861 472.451 2.77978 477.316 3.07201C484.102 3.31331 490.638 5.69684 495.987 9.88101C502.043 14.672 506.587 22.49 508.35 31.064C510.057 40.3946 508.451 50.0284 503.808 58.3C502.435 60.5619 500.828 62.6735 499.014 64.6C498.03 65.6466 496.929 66.5773 495.734 67.374L493.716 68.643C493.238 68.9463 492.731 69.2 492.202 69.4L491.445 69.652L491.193 69.904H490.941L490.441 70.156L488.675 70.913C487.627 71.4422 486.528 71.8646 485.395 72.174C483.085 72.9956 480.725 73.6693 478.33 74.191C468.866 76.2904 459.066 76.3763 449.566 74.443C440.582 72.7113 431.792 70.0924 423.326 66.625C415.252 63.347 407.426 59.564 400.113 55.781C385.474 48.213 372.353 40.643 361 34.343C338.039 22.243 322.9 13.916 322.9 13.916Z" fill="url(#paint1_linear)"/>
</g>
<g filter="url(#filter2_d)">
<path d="M376.648 113.019C358.986 95.6189 278.75 46.4429 203.561 46.4429C129.886 46.6949 89.263 90.5749 6 83.7659C79.928 122.602 148.052 96.6269 200.029 86.0359C292.627 66.8699 376.648 113.019 376.648 113.019Z" fill="url(#paint2_linear)"/>
</g>
<defs>
<filter id="filter0_d" x="95.6401" y="7.43994" width="403.842" height="101.242" filterUnits="userSpaceOnUse" color-interpolation-filters="sRGB">
<feFlood flood-opacity="0" result="BackgroundImageFix"/>
<feColorMatrix in="SourceAlpha" type="matrix" values="0 0 0 0 0 0 0 0 0 0 0 0 0 0 0 0 0 0 127 0"/>
<feOffset dy="3"/>
<feGaussianBlur stdDeviation="3"/>
<feColorMatrix type="matrix" values="0 0 0 0 0 0 0 0 0 0 0 0 0 0 0 0 0 0 0.161 0"/>
<feBlend mode="normal" in2="BackgroundImageFix" result="effect1_dropShadow"/>
<feBlend mode="normal" in="SourceGraphic" in2="effect1_dropShadow" result="shape"/>
</filter>
<filter id="filter1_d" x="316.9" y="0" width="198.114" height="84.8319" filterUnits="userSpaceOnUse" color-interpolation-filters="sRGB">
<feFlood flood-opacity="0" result="BackgroundImageFix"/>
<feColorMatrix in="SourceAlpha" type="matrix" values="0 0 0 0 0 0 0 0 0 0 0 0 0 0 0 0 0 0 127 0"/>
<feOffset dy="3"/>
<feGaussianBlur stdDeviation="3"/>
<feColorMatrix type="matrix" values="0 0 0 0 0 0 0 0 0 0 0 0 0 0 0 0 0 0 0.161 0"/>
<feBlend mode="normal" in2="BackgroundImageFix" result="effect1_dropShadow"/>
<feBlend mode="normal" in="SourceGraphic" in2="effect1_dropShadow" result="shape"/>
</filter>
<filter id="filter2_d" x="0" y="43.4429" width="382.648" height="78.576" filterUnits="userSpaceOnUse" color-interpolation-filters="sRGB">
<feFlood flood-opacity="0" result="BackgroundImageFix"/>
<feColorMatrix in="SourceAlpha" type="matrix" values="0 0 0 0 0 0 0 0 0 0 0 0 0 0 0 0 0 0 127 0"/>
<feOffset dy="3"/>
<feGaussianBlur stdDeviation="3"/>
<feColorMatrix type="matrix" values="0 0 0 0 0 0 0 0 0 0 0 0 0 0 0 0 0 0 0.161 0"/>
<feBlend mode="normal" in2="BackgroundImageFix" result="effect1_dropShadow"/>
<feBlend mode="normal" in="SourceGraphic" in2="effect1_dropShadow" result="shape"/>
</filter>
<linearGradient id="paint0_linear" x1="442.935" y1="-8.47941" x2="396.968" y2="122.682" gradientUnits="userSpaceOnUse">
<stop stop-color="#F7C735"/>
<stop offset="1" stop-color="#E29D01"/>
</linearGradient>
<linearGradient id="paint1_linear" x1="337.603" y1="18.149" x2="360.121" y2="90.5382" gradientUnits="userSpaceOnUse">
<stop stop-color="#F63535"/>
<stop offset="1" stop-color="#FF009D"/>
</linearGradient>
<linearGradient id="paint2_linear" x1="311.785" y1="71.8083" x2="291.77" y2="146.162" gradientUnits="userSpaceOnUse">
<stop stop-color="#31326C"/>
<stop offset="0.468" stop-color="#2D2E60"/>
<stop offset="1" stop-color="#242658"/>
</linearGradient>
</defs>
</svg>
