<svg width="241" height="206" viewBox="0 0 241 206" fill="none" xmlns="http://www.w3.org/2000/svg">
<path d="M119.07 173.646C167.241 173.646 206.292 134.774 206.292 86.823C206.292 38.872 167.241 0 119.07 0C70.8983 0 31.8477 38.872 31.8477 86.823C31.8477 134.774 70.8983 173.646 119.07 173.646Z" fill="#95989A"/>
<path fill-rule="evenodd" clip-rule="evenodd" d="M61.7458 163.07C61.5088 162.906 61.273 162.741 61.0383 162.575C51.4009 155.754 43.143 147.169 36.7015 137.273C29.8179 126.747 25.1379 114.935 22.9438 102.551C20.7497 90.1662 21.087 77.4656 23.9353 65.2151L116.419 85.7868L133.163 63.5331C125.875 75.7148 121.038 84.746 121.038 84.746L61.7458 163.07Z" fill="url(#paint0_linear)"/>
<path fill-rule="evenodd" clip-rule="evenodd" d="M171.815 17.9857C180.061 24.1041 187.152 31.6426 192.754 40.248C218.986 80.459 207.359 134.32 166.785 160.55C151.633 170.364 133.828 175.277 115.787 174.622C97.7459 173.968 80.3434 167.777 65.9424 156.89L119.287 87.741L171.815 17.9857Z" fill="#FA1C67"/>
<path fill-rule="evenodd" clip-rule="evenodd" d="M99.8237 172.507C109.743 174.96 114.23 174.732 121.535 174.732C169.325 174.732 208.549 134.775 208.549 87.203C208.597 64.1234 199.474 41.9701 183.188 25.6164C166.903 9.26269 144.787 0.0482193 121.708 0C121.254 0 120.802 0.00333333 120.351 0.01L121.708 86.823L99.8237 172.507Z" fill="url(#paint1_linear)"/>
<g filter="url(#filter0_d)">
<path d="M119.154 136.686C146.853 136.686 169.307 114.335 169.307 86.763C169.307 59.1913 146.853 36.84 119.154 36.84C91.4557 36.84 69.0015 59.1913 69.0015 86.763C69.0015 114.335 91.4557 136.686 119.154 136.686Z" fill="white"/>
</g>
<path d="M102.345 85.296C103.241 85.104 104.065 85.008 104.817 85.008C105.713 85.008 106.505 85.14 107.193 85.404C107.881 85.668 108.453 86.032 108.909 86.496C109.373 86.96 109.721 87.508 109.953 88.14C110.193 88.772 110.313 89.46 110.313 90.204C110.313 91.116 110.153 91.94 109.833 92.676C109.521 93.412 109.085 94.044 108.525 94.572C107.973 95.092 107.321 95.492 106.569 95.772C105.817 96.052 105.005 96.192 104.133 96.192C103.629 96.192 103.145 96.14 102.681 96.036C102.217 95.94 101.781 95.808 101.373 95.64C100.973 95.472 100.601 95.28 100.257 95.064C99.9135 94.848 99.6095 94.62 99.3455 94.38L100.005 93.468C100.149 93.26 100.337 93.156 100.569 93.156C100.729 93.156 100.909 93.22 101.109 93.348C101.309 93.468 101.553 93.604 101.841 93.756C102.129 93.908 102.465 94.048 102.849 94.176C103.241 94.296 103.705 94.356 104.241 94.356C104.841 94.356 105.381 94.26 105.861 94.068C106.341 93.876 106.753 93.604 107.097 93.252C107.441 92.892 107.705 92.464 107.889 91.968C108.073 91.472 108.165 90.916 108.165 90.3C108.165 89.764 108.085 89.28 107.925 88.848C107.773 88.416 107.537 88.048 107.217 87.744C106.905 87.44 106.513 87.204 106.041 87.036C105.569 86.868 105.017 86.784 104.385 86.784C103.953 86.784 103.501 86.82 103.029 86.892C102.565 86.964 102.089 87.08 101.601 87.24L100.257 86.844L101.637 78.804H109.785V79.74C109.785 80.044 109.689 80.296 109.497 80.496C109.313 80.688 108.993 80.784 108.537 80.784H103.137L102.345 85.296ZM118.859 94.416C119.435 94.416 119.955 94.324 120.419 94.14C120.891 93.956 121.291 93.7 121.619 93.372C121.955 93.044 122.211 92.656 122.387 92.208C122.571 91.76 122.663 91.272 122.663 90.744C122.663 90.184 122.575 89.68 122.399 89.232C122.223 88.776 121.971 88.392 121.643 88.08C121.323 87.76 120.939 87.516 120.491 87.348C120.043 87.18 119.551 87.096 119.015 87.096C118.439 87.096 117.919 87.196 117.455 87.396C116.991 87.588 116.595 87.852 116.267 88.188C115.947 88.516 115.699 88.9 115.523 89.34C115.355 89.772 115.271 90.224 115.271 90.696C115.271 91.248 115.351 91.752 115.511 92.208C115.671 92.664 115.903 93.056 116.207 93.384C116.519 93.712 116.895 93.968 117.335 94.152C117.783 94.328 118.291 94.416 118.859 94.416ZM117.611 85.248C117.459 85.44 117.311 85.628 117.167 85.812C117.031 85.988 116.899 86.164 116.771 86.34C117.179 86.06 117.627 85.844 118.115 85.692C118.603 85.54 119.135 85.464 119.711 85.464C120.407 85.464 121.063 85.58 121.679 85.812C122.295 86.036 122.831 86.368 123.287 86.808C123.751 87.24 124.119 87.776 124.391 88.416C124.663 89.048 124.799 89.772 124.799 90.588C124.799 91.38 124.655 92.116 124.367 92.796C124.079 93.476 123.675 94.068 123.155 94.572C122.643 95.076 122.023 95.472 121.295 95.76C120.575 96.048 119.779 96.192 118.907 96.192C118.043 96.192 117.259 96.056 116.555 95.784C115.851 95.504 115.251 95.112 114.755 94.608C114.267 94.096 113.887 93.48 113.615 92.76C113.351 92.032 113.219 91.22 113.219 90.324C113.219 89.572 113.383 88.772 113.711 87.924C114.047 87.068 114.579 86.156 115.307 85.188L119.675 79.32C119.787 79.176 119.939 79.056 120.131 78.96C120.331 78.856 120.559 78.804 120.815 78.804H122.711L117.611 85.248ZM134.509 82.956C134.509 83.628 134.405 84.232 134.197 84.768C133.989 85.296 133.709 85.744 133.357 86.112C133.013 86.472 132.609 86.748 132.145 86.94C131.689 87.132 131.205 87.228 130.693 87.228C130.157 87.228 129.657 87.132 129.193 86.94C128.729 86.748 128.325 86.472 127.981 86.112C127.645 85.744 127.381 85.296 127.189 84.768C126.997 84.232 126.901 83.628 126.901 82.956C126.901 82.268 126.997 81.656 127.189 81.12C127.381 80.584 127.645 80.132 127.981 79.764C128.325 79.396 128.729 79.116 129.193 78.924C129.657 78.732 130.157 78.636 130.693 78.636C131.237 78.636 131.741 78.732 132.205 78.924C132.669 79.116 133.073 79.396 133.417 79.764C133.761 80.132 134.029 80.584 134.221 81.12C134.413 81.656 134.509 82.268 134.509 82.956ZM132.853 82.956C132.853 82.428 132.797 81.98 132.685 81.612C132.573 81.244 132.417 80.944 132.217 80.712C132.025 80.472 131.797 80.3 131.533 80.196C131.269 80.092 130.989 80.04 130.693 80.04C130.397 80.04 130.121 80.092 129.865 80.196C129.609 80.3 129.385 80.472 129.193 80.712C129.001 80.944 128.849 81.244 128.737 81.612C128.625 81.98 128.569 82.428 128.569 82.956C128.569 83.476 128.625 83.92 128.737 84.288C128.849 84.648 129.001 84.944 129.193 85.176C129.385 85.4 129.609 85.564 129.865 85.668C130.121 85.764 130.397 85.812 130.693 85.812C130.989 85.812 131.269 85.764 131.533 85.668C131.797 85.564 132.025 85.4 132.217 85.176C132.417 84.944 132.573 84.648 132.685 84.288C132.797 83.92 132.853 83.476 132.853 82.956ZM140.593 79.164C140.673 79.068 140.765 78.984 140.869 78.912C140.981 78.84 141.129 78.804 141.313 78.804H142.861L130.285 95.652C130.213 95.756 130.121 95.84 130.009 95.904C129.897 95.968 129.761 96 129.601 96H128.029L140.593 79.164ZM144.025 91.944C144.025 92.616 143.921 93.216 143.713 93.744C143.505 94.272 143.225 94.72 142.873 95.088C142.529 95.448 142.125 95.724 141.661 95.916C141.205 96.108 140.721 96.204 140.209 96.204C139.665 96.204 139.161 96.108 138.697 95.916C138.241 95.724 137.841 95.448 137.497 95.088C137.161 94.72 136.897 94.272 136.705 93.744C136.513 93.216 136.417 92.616 136.417 91.944C136.417 91.256 136.513 90.644 136.705 90.108C136.897 89.564 137.161 89.108 137.497 88.74C137.841 88.372 138.241 88.092 138.697 87.9C139.161 87.708 139.665 87.612 140.209 87.612C140.745 87.612 141.245 87.708 141.709 87.9C142.181 88.092 142.585 88.372 142.921 88.74C143.265 89.108 143.533 89.564 143.725 90.108C143.925 90.644 144.025 91.256 144.025 91.944ZM142.369 91.944C142.369 91.416 142.313 90.968 142.201 90.6C142.089 90.224 141.933 89.92 141.733 89.688C141.541 89.456 141.313 89.288 141.049 89.184C140.785 89.08 140.505 89.028 140.209 89.028C139.913 89.028 139.633 89.08 139.369 89.184C139.113 89.288 138.889 89.456 138.697 89.688C138.505 89.92 138.353 90.224 138.241 90.6C138.137 90.968 138.085 91.416 138.085 91.944C138.085 92.464 138.137 92.904 138.241 93.264C138.353 93.624 138.505 93.92 138.697 94.152C138.889 94.376 139.113 94.54 139.369 94.644C139.633 94.74 139.913 94.788 140.209 94.788C140.505 94.788 140.785 94.74 141.049 94.644C141.313 94.54 141.541 94.376 141.733 94.152C141.933 93.92 142.089 93.624 142.201 93.264C142.313 92.904 142.369 92.464 142.369 91.944Z" fill="#2B2D5B"/>
<defs>
<filter id="filter0_d" x="63.0015" y="33.84" width="112.306" height="111.846" filterUnits="userSpaceOnUse" color-interpolation-filters="sRGB">
<feFlood flood-opacity="0" result="BackgroundImageFix"/>
<feColorMatrix in="SourceAlpha" type="matrix" values="0 0 0 0 0 0 0 0 0 0 0 0 0 0 0 0 0 0 127 0"/>
<feOffset dy="3"/>
<feGaussianBlur stdDeviation="3"/>
<feColorMatrix type="matrix" values="0 0 0 0 0 0 0 0 0 0 0 0 0 0 0 0 0 0 0.161 0"/>
<feBlend mode="normal" in2="BackgroundImageFix" result="effect1_dropShadow"/>
<feBlend mode="normal" in="SourceGraphic" in2="effect1_dropShadow" result="shape"/>
</filter>
<linearGradient id="paint0_linear" x1="27.9974" y1="71.6354" x2="87.081" y2="156.22" gradientUnits="userSpaceOnUse">
<stop stop-color="#F7C735"/>
<stop offset="1" stop-color="#E29D01"/>
</linearGradient>
<linearGradient id="paint1_linear" x1="154.186" y1="0" x2="65.1806" y2="154.593" gradientUnits="userSpaceOnUse">
<stop stop-color="#F63535"/>
<stop offset="1" stop-color="#FF009D"/>
</linearGradient>
</defs>
</svg>
