<svg width="241" height="206" viewBox="0 0 241 206" fill="none" xmlns="http://www.w3.org/2000/svg">
<path d="M119.07 173.646C167.241 173.646 206.292 134.774 206.292 86.823C206.292 38.872 167.241 0 119.07 0C70.8983 0 31.8477 38.872 31.8477 86.823C31.8477 134.774 70.8983 173.646 119.07 173.646Z" fill="#95989A"/>
<path fill-rule="evenodd" clip-rule="evenodd" d="M61.7458 163.07C61.5088 162.906 61.273 162.741 61.0383 162.575C51.4009 155.754 43.143 147.169 36.7015 137.273C29.8179 126.747 25.1379 114.935 22.9438 102.551C20.7497 90.1662 21.087 77.4656 23.9353 65.2151L116.419 85.7868L133.163 63.5331C125.875 75.7148 121.038 84.746 121.038 84.746L61.7458 163.07Z" fill="url(#paint0_linear)"/>
<path fill-rule="evenodd" clip-rule="evenodd" d="M171.815 17.9857C180.061 24.1041 187.152 31.6426 192.754 40.248C218.986 80.459 207.359 134.32 166.785 160.55C151.633 170.364 133.828 175.277 115.787 174.622C97.7459 173.968 80.3434 167.777 65.9424 156.89L119.287 87.7409L171.815 17.9857Z" fill="#515FEB"/>
<path fill-rule="evenodd" clip-rule="evenodd" d="M99.8237 172.507C109.743 174.96 114.23 174.732 121.535 174.732C169.325 174.732 208.549 134.775 208.549 87.203C208.597 64.1234 199.474 41.9701 183.188 25.6164C166.903 9.26269 144.787 0.0482193 121.708 0C121.254 0 120.802 0.00333333 120.351 0.01L121.708 86.823L99.8237 172.507Z" fill="url(#paint1_linear)"/>
<g filter="url(#filter0_d)">
<path d="M119.154 136.686C146.853 136.686 169.307 114.335 169.307 86.763C169.307 59.1913 146.853 36.84 119.154 36.84C91.4557 36.84 69.0015 59.1913 69.0015 86.763C69.0015 114.335 91.4557 136.686 119.154 136.686Z" fill="white"/>
</g>
<path d="M85.5615 83.46C85.6735 82.676 85.8895 81.984 86.2095 81.384C86.5295 80.776 86.9335 80.268 87.4215 79.86C87.9175 79.452 88.4815 79.144 89.1135 78.936C89.7535 78.72 90.4415 78.612 91.1775 78.612C91.9055 78.612 92.5775 78.716 93.1935 78.924C93.8095 79.132 94.3375 79.428 94.7775 79.812C95.2255 80.196 95.5735 80.66 95.8215 81.204C96.0695 81.748 96.1935 82.352 96.1935 83.016C96.1935 83.56 96.1215 84.048 95.9775 84.48C95.8415 84.904 95.6415 85.276 95.3775 85.596C95.1215 85.916 94.8095 86.188 94.4415 86.412C94.0735 86.636 93.6615 86.82 93.2055 86.964C94.3255 87.252 95.1655 87.748 95.7255 88.452C96.2935 89.148 96.5775 90.02 96.5775 91.068C96.5775 91.86 96.4255 92.572 96.1215 93.204C95.8255 93.836 95.4175 94.376 94.8975 94.824C94.3775 95.264 93.7695 95.604 93.0735 95.844C92.3855 96.076 91.6455 96.192 90.8535 96.192C89.9415 96.192 89.1615 96.08 88.5135 95.856C87.8655 95.624 87.3175 95.308 86.8695 94.908C86.4215 94.508 86.0535 94.036 85.7655 93.492C85.4775 92.94 85.2335 92.344 85.0335 91.704L85.9575 91.32C86.1975 91.216 86.4295 91.188 86.6535 91.236C86.8855 91.284 87.0535 91.416 87.1575 91.632C87.2615 91.856 87.3895 92.124 87.5415 92.436C87.7015 92.748 87.9175 93.048 88.1895 93.336C88.4615 93.624 88.8055 93.868 89.2215 94.068C89.6455 94.268 90.1815 94.368 90.8295 94.368C91.4295 94.368 91.9535 94.272 92.4015 94.08C92.8575 93.88 93.2335 93.624 93.5295 93.312C93.8335 93 94.0615 92.652 94.2135 92.268C94.3655 91.884 94.4415 91.504 94.4415 91.128C94.4415 90.664 94.3815 90.24 94.2615 89.856C94.1415 89.472 93.9175 89.14 93.5895 88.86C93.2615 88.58 92.8095 88.36 92.2335 88.2C91.6655 88.04 90.9335 87.96 90.0375 87.96V86.412C90.7735 86.404 91.3975 86.324 91.9095 86.172C92.4295 86.02 92.8495 85.812 93.1695 85.548C93.4975 85.284 93.7335 84.968 93.8775 84.6C94.0295 84.232 94.1055 83.824 94.1055 83.376C94.1055 82.88 94.0255 82.448 93.8655 82.08C93.7135 81.712 93.5015 81.408 93.2295 81.168C92.9575 80.928 92.6335 80.748 92.2575 80.628C91.8895 80.508 91.4895 80.448 91.0575 80.448C90.6255 80.448 90.2215 80.512 89.8455 80.64C89.4775 80.768 89.1495 80.948 88.8615 81.18C88.5815 81.404 88.3455 81.672 88.1535 81.984C87.9615 82.296 87.8255 82.64 87.7455 83.016C87.6415 83.296 87.5095 83.484 87.3495 83.58C87.1975 83.668 86.9735 83.692 86.6775 83.652L85.5615 83.46ZM106.683 89.796V82.704C106.683 82.496 106.691 82.268 106.707 82.02C106.723 81.772 106.747 81.52 106.779 81.264L100.515 89.796H106.683ZM111.159 89.796V91.02C111.159 91.148 111.119 91.256 111.039 91.344C110.967 91.432 110.851 91.476 110.691 91.476H108.555V96H106.683V91.476H99.0513C98.8913 91.476 98.7513 91.432 98.6313 91.344C98.5193 91.248 98.4473 91.132 98.4153 90.996L98.1993 89.904L106.563 78.804H108.555V89.796H111.159ZM116.189 85.296C117.085 85.104 117.909 85.008 118.661 85.008C119.557 85.008 120.349 85.14 121.037 85.404C121.725 85.668 122.297 86.032 122.753 86.496C123.217 86.96 123.565 87.508 123.797 88.14C124.037 88.772 124.157 89.46 124.157 90.204C124.157 91.116 123.997 91.94 123.677 92.676C123.365 93.412 122.929 94.044 122.369 94.572C121.817 95.092 121.165 95.492 120.413 95.772C119.661 96.052 118.849 96.192 117.977 96.192C117.473 96.192 116.989 96.14 116.525 96.036C116.061 95.94 115.625 95.808 115.217 95.64C114.817 95.472 114.445 95.28 114.101 95.064C113.757 94.848 113.453 94.62 113.189 94.38L113.849 93.468C113.993 93.26 114.181 93.156 114.413 93.156C114.573 93.156 114.753 93.22 114.953 93.348C115.153 93.468 115.397 93.604 115.685 93.756C115.973 93.908 116.309 94.048 116.693 94.176C117.085 94.296 117.549 94.356 118.085 94.356C118.685 94.356 119.225 94.26 119.705 94.068C120.185 93.876 120.597 93.604 120.941 93.252C121.285 92.892 121.549 92.464 121.733 91.968C121.917 91.472 122.009 90.916 122.009 90.3C122.009 89.764 121.929 89.28 121.769 88.848C121.617 88.416 121.381 88.048 121.061 87.744C120.749 87.44 120.357 87.204 119.885 87.036C119.413 86.868 118.861 86.784 118.229 86.784C117.797 86.784 117.345 86.82 116.873 86.892C116.409 86.964 115.933 87.08 115.445 87.24L114.101 86.844L115.481 78.804H123.629V79.74C123.629 80.044 123.533 80.296 123.341 80.496C123.157 80.688 122.837 80.784 122.381 80.784H116.981L116.189 85.296ZM138.967 87.408C138.967 88.912 138.803 90.216 138.475 91.32C138.155 92.416 137.715 93.324 137.155 94.044C136.595 94.764 135.931 95.3 135.163 95.652C134.403 96.004 133.587 96.18 132.715 96.18C131.835 96.18 131.015 96.004 130.255 95.652C129.503 95.3 128.847 94.764 128.287 94.044C127.727 93.324 127.287 92.416 126.967 91.32C126.647 90.216 126.487 88.912 126.487 87.408C126.487 85.904 126.647 84.6 126.967 83.496C127.287 82.392 127.727 81.48 128.287 80.76C128.847 80.032 129.503 79.492 130.255 79.14C131.015 78.788 131.835 78.612 132.715 78.612C133.587 78.612 134.403 78.788 135.163 79.14C135.931 79.492 136.595 80.032 137.155 80.76C137.715 81.48 138.155 82.392 138.475 83.496C138.803 84.6 138.967 85.904 138.967 87.408ZM136.747 87.408C136.747 86.096 136.635 84.996 136.411 84.108C136.195 83.212 135.899 82.492 135.523 81.948C135.155 81.404 134.727 81.016 134.239 80.784C133.751 80.544 133.243 80.424 132.715 80.424C132.187 80.424 131.679 80.544 131.191 80.784C130.703 81.016 130.275 81.404 129.907 81.948C129.539 82.492 129.243 83.212 129.019 84.108C128.803 84.996 128.695 86.096 128.695 87.408C128.695 88.72 128.803 89.82 129.019 90.708C129.243 91.596 129.539 92.312 129.907 92.856C130.275 93.4 130.703 93.792 131.191 94.032C131.679 94.264 132.187 94.38 132.715 94.38C133.243 94.38 133.751 94.264 134.239 94.032C134.727 93.792 135.155 93.4 135.523 92.856C135.899 92.312 136.195 91.596 136.411 90.708C136.635 89.82 136.747 88.72 136.747 87.408ZM139.965 85.212H141.729C141.889 84.204 142.157 83.296 142.533 82.488C142.917 81.672 143.389 80.98 143.949 80.412C144.517 79.836 145.165 79.396 145.893 79.092C146.629 78.788 147.429 78.636 148.293 78.636C148.829 78.636 149.325 78.688 149.781 78.792C150.237 78.896 150.657 79.044 151.041 79.236C151.433 79.428 151.793 79.664 152.121 79.944C152.449 80.224 152.753 80.54 153.033 80.892L152.289 81.708C152.233 81.78 152.169 81.844 152.097 81.9C152.033 81.948 151.945 81.972 151.833 81.972C151.697 81.972 151.553 81.896 151.401 81.744C151.257 81.592 151.061 81.424 150.813 81.24C150.565 81.056 150.249 80.888 149.865 80.736C149.481 80.584 148.989 80.508 148.389 80.508C147.221 80.508 146.249 80.908 145.473 81.708C144.705 82.508 144.193 83.676 143.937 85.212H150.501V85.872C150.501 86.016 150.445 86.148 150.333 86.268C150.229 86.38 150.077 86.436 149.877 86.436H143.793C143.785 86.596 143.777 86.756 143.769 86.916C143.769 87.076 143.769 87.24 143.769 87.408C143.769 87.536 143.769 87.66 143.769 87.78C143.769 87.9 143.773 88.02 143.781 88.14H149.385V88.812C149.385 88.948 149.325 89.076 149.205 89.196C149.093 89.308 148.945 89.364 148.761 89.364H143.889C144.113 91.012 144.605 92.248 145.365 93.072C146.133 93.896 147.101 94.308 148.269 94.308C148.701 94.308 149.081 94.268 149.409 94.188C149.737 94.1 150.021 93.992 150.261 93.864C150.501 93.736 150.705 93.6 150.873 93.456C151.049 93.304 151.201 93.164 151.329 93.036C151.457 92.908 151.569 92.804 151.665 92.724C151.769 92.636 151.869 92.592 151.965 92.592C152.037 92.592 152.097 92.604 152.145 92.628C152.193 92.652 152.249 92.696 152.313 92.76L153.213 93.6C152.645 94.408 151.945 95.04 151.113 95.496C150.281 95.952 149.297 96.18 148.161 96.18C147.233 96.18 146.397 96.024 145.653 95.712C144.909 95.392 144.261 94.94 143.709 94.356C143.165 93.764 142.721 93.048 142.377 92.208C142.033 91.36 141.797 90.412 141.669 89.364H139.965V88.14H141.573C141.565 88.02 141.561 87.9 141.561 87.78C141.561 87.66 141.561 87.536 141.561 87.408C141.561 87.248 141.561 87.088 141.561 86.928C141.569 86.76 141.577 86.596 141.585 86.436H139.965V85.212Z" fill="#2B2D5B"/>
<defs>
<filter id="filter0_d" x="63.0015" y="33.84" width="112.306" height="111.846" filterUnits="userSpaceOnUse" color-interpolation-filters="sRGB">
<feFlood flood-opacity="0" result="BackgroundImageFix"/>
<feColorMatrix in="SourceAlpha" type="matrix" values="0 0 0 0 0 0 0 0 0 0 0 0 0 0 0 0 0 0 127 0"/>
<feOffset dy="3"/>
<feGaussianBlur stdDeviation="3"/>
<feColorMatrix type="matrix" values="0 0 0 0 0 0 0 0 0 0 0 0 0 0 0 0 0 0 0.161 0"/>
<feBlend mode="normal" in2="BackgroundImageFix" result="effect1_dropShadow"/>
<feBlend mode="normal" in="SourceGraphic" in2="effect1_dropShadow" result="shape"/>
</filter>
<linearGradient id="paint0_linear" x1="27.9974" y1="71.6354" x2="87.081" y2="156.22" gradientUnits="userSpaceOnUse">
<stop stop-color="#F7C735"/>
<stop offset="1" stop-color="#E29D01"/>
</linearGradient>
<linearGradient id="paint1_linear" x1="154.186" y1="0" x2="65.1806" y2="154.593" gradientUnits="userSpaceOnUse">
<stop stop-color="#F63535"/>
<stop offset="1" stop-color="#FF009D"/>
</linearGradient>
</defs>
</svg>
