<svg width="39" height="35" viewBox="0 0 39 35" fill="none" xmlns="http://www.w3.org/2000/svg">
<g filter="url(#filter0_d)">
<path d="M2.703 18.7399C2.856 18.7269 2.916 18.5919 3.003 18.4979C8.481 12.9699 13.9567 7.43522 19.43 1.89389C19.663 1.65889 19.776 1.64489 20.015 1.88689C21.93 3.84789 23.864 5.78689 25.792 7.73789C25.878 7.82489 25.965 7.90589 26.058 7.99289C26.158 7.87889 26.111 7.76489 26.111 7.66389C26.111 6.46389 26.118 5.26389 26.104 4.06989C26.104 3.81489 26.17 3.75389 26.416 3.75389C27.626 3.76689 28.829 3.76689 30.039 3.75389C30.292 3.75389 30.371 3.80789 30.371 4.08289C30.358 6.72289 30.371 9.36889 30.358 12.0089C30.3545 12.1234 30.3758 12.2373 30.4205 12.3428C30.4652 12.4483 30.5323 12.5428 30.617 12.6199C32.558 14.5679 34.493 16.5289 36.428 18.4839C36.514 18.5709 36.608 18.6449 36.701 18.7259C36.601 18.8539 36.495 18.8069 36.408 18.8069C35.225 18.8139 34.035 18.7999 32.851 18.8139C32.7375 18.8191 32.6243 18.7989 32.5197 18.7548C32.415 18.7107 32.3215 18.6437 32.246 18.5589C28.1793 14.4416 24.1083 10.3216 20.033 6.19889C19.78 5.94389 19.661 5.97089 19.421 6.21189C15.3543 10.3366 11.2833 14.4566 7.208 18.5719C7.13674 18.6539 7.04752 18.7184 6.94727 18.7604C6.84703 18.8024 6.73846 18.8207 6.63 18.8139C5.32 18.8009 4.017 18.8069 2.707 18.8069C2.70272 18.7848 2.70137 18.7623 2.703 18.7399Z" fill="white"/>
</g>
<g filter="url(#filter1_d)">
<path d="M21.858 26.339C21.858 24.646 21.851 22.96 21.865 21.268C21.865 21.013 21.799 20.952 21.553 20.952C20.353 20.9653 19.1563 20.9653 17.963 20.952C17.684 20.945 17.591 21.006 17.597 21.315C17.61 24.647 17.597 27.985 17.61 31.315C17.61 31.644 17.524 31.715 17.21 31.715C15.3153 31.7016 13.4207 31.7016 11.526 31.715C11.26 31.715 11.194 31.615 11.16 31.386C10.4887 27.282 9.81066 23.171 9.126 19.053C9.10768 18.979 9.11043 18.9014 9.13394 18.829C9.15745 18.7565 9.20077 18.6921 9.259 18.643C12.683 15.1836 16.1047 11.7243 19.524 8.26496C19.697 8.08996 19.783 8.11696 19.936 8.27796C23.3467 11.7306 26.7617 15.181 30.181 18.629C30.2409 18.6751 30.2869 18.7368 30.3139 18.8074C30.3409 18.878 30.3478 18.9547 30.334 19.029C29.6493 23.1536 28.9713 27.278 28.3 31.402C28.26 31.644 28.167 31.718 27.921 31.718C26.013 31.705 24.111 31.705 22.203 31.718C21.891 31.718 21.851 31.618 21.851 31.342C21.865 29.677 21.858 28.012 21.858 26.339Z" fill="white"/>
</g>
<defs>
<filter id="filter0_d" x="0.702332" y="0.711426" width="37.9987" height="21.1039" filterUnits="userSpaceOnUse" color-interpolation-filters="sRGB">
<feFlood flood-opacity="0" result="BackgroundImageFix"/>
<feColorMatrix in="SourceAlpha" type="matrix" values="0 0 0 0 0 0 0 0 0 0 0 0 0 0 0 0 0 0 127 0"/>
<feOffset dy="1"/>
<feGaussianBlur stdDeviation="1"/>
<feColorMatrix type="matrix" values="0 0 0 0 0 0 0 0 0 0 0 0 0 0 0 0 0 0 0.541 0"/>
<feBlend mode="normal" in2="BackgroundImageFix" result="effect1_dropShadow"/>
<feBlend mode="normal" in="SourceGraphic" in2="effect1_dropShadow" result="shape"/>
</filter>
<filter id="filter1_d" x="7.11403" y="7.14502" width="25.2269" height="27.5729" filterUnits="userSpaceOnUse" color-interpolation-filters="sRGB">
<feFlood flood-opacity="0" result="BackgroundImageFix"/>
<feColorMatrix in="SourceAlpha" type="matrix" values="0 0 0 0 0 0 0 0 0 0 0 0 0 0 0 0 0 0 127 0"/>
<feOffset dy="1"/>
<feGaussianBlur stdDeviation="1"/>
<feColorMatrix type="matrix" values="0 0 0 0 0 0 0 0 0 0 0 0 0 0 0 0 0 0 0.541 0"/>
<feBlend mode="normal" in2="BackgroundImageFix" result="effect1_dropShadow"/>
<feBlend mode="normal" in="SourceGraphic" in2="effect1_dropShadow" result="shape"/>
</filter>
</defs>
</svg>
