<svg width="26" height="23" viewBox="0 0 26 23" fill="none" xmlns="http://www.w3.org/2000/svg">
<path d="M23.547 18.0008H19.547C18.4119 18.0701 17.2953 17.6889 16.4395 16.9401C15.5838 16.1912 15.0579 15.135 14.976 14.0008C15.0579 12.8666 15.5838 11.8104 16.4395 11.0615C17.2953 10.3126 18.4119 9.93148 19.547 10.0008H23.547C23.6884 10.0088 23.8272 9.96078 23.9335 9.86721C24.0398 9.77365 24.105 9.64202 24.115 9.50078V8.00078C24.079 7.46644 23.8428 6.96534 23.4535 6.59755C23.0642 6.22977 22.5505 6.02237 22.015 6.01678L18.732 1.00078C18.4082 0.524046 17.9133 0.190288 17.35 0.0687812C16.771 -0.0691097 16.1619 0.00171444 15.63 0.268781L4.37999 6.00078H2.40399C1.83584 5.96504 1.27657 6.15513 0.847883 6.5297C0.419196 6.90426 0.155791 7.43297 0.11499 8.00078L0.11499 20.0008C0.155801 20.568 0.418785 21.0963 0.846814 21.4708C1.27484 21.8452 1.83334 22.0357 2.40099 22.0008H21.832C22.3991 22.0349 22.9569 21.844 23.3842 21.4697C23.8116 21.0953 24.0742 20.5675 24.115 20.0008V18.5008C24.105 18.3595 24.0398 18.2279 23.9335 18.1343C23.8272 18.0408 23.6884 17.9928 23.547 18.0008ZM19.441 4.10078L20.686 6.00078H15.706L19.441 4.10078ZM6.65099 6.00078L16.205 1.13478C16.4673 1.0022 16.7681 0.966777 17.054 1.03478C17.3339 1.09535 17.5796 1.26156 17.74 1.49878L8.90699 6.00078H6.65099Z" fill="url(#paint0_linear)"/>
<path d="M23.826 11.0786H19.872C19.4475 11.0271 19.0169 11.0663 18.6087 11.1935C18.2005 11.3208 17.824 11.5332 17.5039 11.8167C17.1839 12.1003 16.9277 12.4485 16.7522 12.8384C16.5767 13.2283 16.486 13.6511 16.486 14.0786C16.486 14.5062 16.5767 14.9289 16.7522 15.3188C16.9277 15.7088 17.1839 16.057 17.5039 16.3406C17.824 16.6241 18.2005 16.8365 18.6087 16.9637C19.0169 17.091 19.4475 17.1301 19.872 17.0786H23.826C24.2492 17.1025 24.6647 16.9583 24.9821 16.6774C25.2995 16.3965 25.4932 16.0016 25.521 15.5786V12.5786C25.4932 12.1557 25.2995 11.7608 24.9821 11.4799C24.6647 11.199 24.2492 11.0548 23.826 11.0786ZM19.872 15.0786C19.6795 15.055 19.498 14.9762 19.3492 14.8519C19.2005 14.7276 19.0907 14.5629 19.0333 14.3777C18.9758 14.1926 18.973 13.9947 19.0252 13.808C19.0774 13.6212 19.1824 13.4536 19.3276 13.3251C19.4728 13.1966 19.6521 13.1127 19.8438 13.0836C20.0354 13.0545 20.2315 13.0813 20.4083 13.1609C20.5851 13.2405 20.7352 13.3694 20.8405 13.5322C20.9458 13.695 21.0019 13.8847 21.002 14.0786C20.9835 14.3608 20.8542 14.6242 20.6424 14.8115C20.4305 14.9988 20.1533 15.0948 19.871 15.0786H19.872Z" fill="url(#paint1_linear)"/>
<defs>
<linearGradient id="paint0_linear" x1="0.11499" y1="0" x2="0.11499" y2="22.0049" gradientUnits="userSpaceOnUse">
<stop stop-color="white"/>
<stop offset="1" stop-color="white"/>
</linearGradient>
<linearGradient id="paint1_linear" x1="16.486" y1="11.0566" x2="16.486" y2="17.1006" gradientUnits="userSpaceOnUse">
<stop stop-color="white"/>
<stop offset="1" stop-color="white"/>
</linearGradient>
</defs>
</svg>
