<svg width="24" height="24" viewBox="0 0 24 24" fill="none" xmlns="http://www.w3.org/2000/svg">
<path d="M3.75205 5.94141C4.26505 6.46041 4.74005 6.95441 5.23405 7.42941C5.38305 7.57341 5.40205 7.62941 5.19605 7.72941C4.62505 8.01241 4.05905 8.31541 3.49605 8.61741C3.47318 8.63503 3.44703 8.64791 3.41912 8.65529C3.39121 8.66267 3.36211 8.66442 3.33352 8.66041C3.30493 8.65641 3.27743 8.64674 3.25262 8.63197C3.22781 8.6172 3.2062 8.59763 3.18905 8.57441C2.27005 7.65041 1.34405 6.73841 0.423053 5.81141C0.290581 5.6829 0.185009 5.5293 0.112488 5.35958C0.0399675 5.18986 0.00194803 5.0074 0.00064502 4.82284C-0.000657986 4.63828 0.0347816 4.45531 0.104899 4.28458C0.175016 4.11385 0.278409 3.95878 0.409053 3.82841C1.57439 2.65641 2.74772 1.48974 3.92905 0.328411C4.1391 0.118227 4.42405 9.38241e-05 4.7212 5.58639e-08C5.01835 -9.37123e-05 5.30337 0.117859 5.51355 0.327911C5.72374 0.537962 5.84187 0.822906 5.84196 1.12006C5.84206 1.41721 5.7241 1.70223 5.51405 1.91241C4.98905 2.44041 4.45705 2.96341 3.93405 3.48741C3.88105 3.54041 3.82805 3.59741 3.74205 3.68741H12.8841C12.8461 3.77841 12.7741 3.78741 12.7211 3.81741C11.4311 4.48408 10.1424 5.15308 8.85505 5.82441C8.70127 5.9062 8.5292 5.9475 8.35505 5.94441C6.83605 5.93641 5.31405 5.94141 3.75205 5.94141Z" fill="white"/>
<path d="M20.2331 20.3024H11.076C11.182 20.2404 11.2291 20.2024 11.2821 20.1774C12.5774 19.5054 13.8724 18.8301 15.1671 18.1514C15.2999 18.0805 15.4485 18.0441 15.5991 18.0454C17.0621 18.0454 18.5251 18.0454 19.9881 18.0454H20.2041C20.2141 17.9454 20.1321 17.9154 20.0891 17.8674C19.633 17.4064 19.1731 16.9504 18.7121 16.4994C18.6061 16.3994 18.6061 16.3554 18.7411 16.2834C19.3361 15.9764 19.9311 15.6644 20.5201 15.3474C20.5405 15.3325 20.5637 15.3218 20.5883 15.3159C20.613 15.3099 20.6385 15.309 20.6635 15.313C20.6885 15.317 20.7125 15.3258 20.734 15.3391C20.7556 15.3524 20.7743 15.3699 20.7891 15.3904C21.7201 16.3214 22.6641 17.2484 23.5891 18.1844C23.7202 18.3145 23.824 18.4695 23.8944 18.6403C23.9649 18.8111 24.0005 18.9941 23.9992 19.1789C23.9979 19.3636 23.9597 19.5462 23.8869 19.7159C23.814 19.8857 23.708 20.0392 23.5751 20.1674C22.4144 21.3294 21.2521 22.4851 20.0881 23.6344C19.9849 23.7437 19.8609 23.8311 19.7233 23.8915C19.5858 23.9519 19.4375 23.9841 19.2873 23.9861C19.1371 23.9881 18.9879 23.9599 18.8488 23.9032C18.7097 23.8465 18.5834 23.7625 18.4773 23.6561C18.3713 23.5496 18.2877 23.423 18.2316 23.2836C18.1754 23.1443 18.1478 22.9951 18.1504 22.8449C18.153 22.6947 18.1857 22.5465 18.2466 22.4092C18.3075 22.2719 18.3954 22.1482 18.5051 22.0454C19.0761 21.4734 19.6381 20.9024 20.2331 20.3024Z" fill="white"/>
<path d="M9.83805 17.6804L12.8211 16.1294C12.9096 16.0924 12.9946 16.0475 13.075 15.9954C13.5705 15.7271 14.1095 15.5484 14.6671 15.4674C14.7581 15.4384 14.7771 15.5054 14.8061 15.5584C14.8731 15.6834 14.936 15.8124 15.012 15.9374C15.0234 15.9652 15.0405 15.9903 15.0623 16.011C15.084 16.0317 15.1099 16.0476 15.1383 16.0576C15.1666 16.0677 15.1967 16.0716 15.2267 16.0691C15.2566 16.0666 15.2857 16.0579 15.312 16.0434C15.451 15.9764 15.5121 15.8434 15.4181 15.7264C15.1251 15.3514 15.2791 15.1404 15.5911 14.8574C15.8692 14.5994 16.1806 14.3797 16.5171 14.2044C17.5341 13.6714 18.5461 13.1284 19.5631 12.5954C19.6401 12.5574 19.7171 12.5234 19.8081 12.4804C19.8326 12.9325 19.9383 13.3766 20.12 13.7914C20.178 13.9164 20.2301 13.9304 20.3501 13.8684C21.2227 13.4077 22.0987 12.9484 22.978 12.4904C23.103 12.4234 23.108 12.3754 23.045 12.2604C22.5844 11.3937 22.1321 10.523 21.6881 9.64835C21.6111 9.49435 21.5391 9.49436 21.4191 9.58636C21.3521 9.63936 21.2701 9.68636 21.1981 9.73036C20.8911 9.95136 20.886 9.95136 20.704 9.60036C20.522 9.24936 20.3251 8.86136 20.1241 8.50036C20.0571 8.38036 20.0571 8.33236 20.2101 8.29436C20.3866 8.24347 20.5597 8.18101 20.728 8.10736C20.828 8.07336 20.838 8.02536 20.786 7.92936C20.316 7.03136 19.8477 6.13136 19.381 5.22936C19.333 5.12936 19.2811 5.12336 19.1941 5.18136C19.1481 5.2136 19.098 5.2395 19.0451 5.25836C18.8871 5.32536 18.7001 5.52736 18.5891 5.45036C18.4361 5.34436 18.3781 5.10936 18.2721 4.92736C18.2101 4.82136 18.3061 4.80736 18.3631 4.77836C18.6461 4.62936 18.9241 4.47836 19.2121 4.33136C19.2649 4.29015 19.3269 4.26243 19.3928 4.25061C19.4587 4.23879 19.5265 4.24321 19.5904 4.2635C19.6542 4.28379 19.7121 4.31934 19.7591 4.36706C19.8061 4.41478 19.8407 4.47323 19.8601 4.53735L21.3281 7.36036C22.1821 8.99303 23.0344 10.6264 23.885 12.2604C24.067 12.6114 24.0151 12.7694 23.6641 12.9514C18.4554 15.674 13.2464 18.395 8.03705 21.1144C7.69205 21.2924 7.51906 21.2394 7.33706 20.8984C7.10206 20.4474 6.86705 19.9914 6.62705 19.5394C6.56505 19.4244 6.57906 19.3664 6.69906 19.3044C7.19906 19.0304 7.19906 19.0264 7.46206 19.5344C7.58206 19.7604 7.70705 19.9854 7.81205 20.2164C7.86505 20.3314 7.91705 20.3414 8.02805 20.2834C8.91072 19.8167 9.79473 19.3557 10.6801 18.9004C10.8001 18.8384 10.8001 18.7854 10.7381 18.6844C10.5025 18.2971 10.1974 17.9567 9.83805 17.6804Z" fill="white"/>
<path d="M20.6531 10.7563C19.3244 8.2116 17.9974 5.66526 16.6721 3.11726C16.4721 2.73326 16.3171 2.68027 15.9291 2.88227L0.327068 11.0353C-0.0139319 11.2133 -0.072932 11.3763 0.106068 11.7073C1.4494 14.2806 2.7924 16.8559 4.13507 19.4333C4.30807 19.7693 4.48007 19.8223 4.81107 19.6443C8.9264 17.4983 13.0451 15.3473 17.1671 13.1913C18.2704 12.6153 19.3737 12.0406 20.4771 11.4673C20.5622 11.4356 20.6361 11.3796 20.6894 11.3061C20.7428 11.2326 20.7733 11.145 20.7771 11.0543C20.7545 10.9481 20.7125 10.8471 20.6531 10.7563ZM12.6331 13.1183C12.4904 13.3222 12.3098 13.4967 12.1011 13.6323C11.9671 13.7183 11.9711 13.7953 12.0431 13.9153C12.1051 14.0153 12.1531 14.1263 12.2061 14.2323C12.2235 14.2593 12.2347 14.2898 12.2391 14.3216C12.2434 14.3535 12.2407 14.3859 12.2312 14.4166C12.2217 14.4473 12.2055 14.4755 12.1839 14.4993C12.1623 14.5231 12.1357 14.5418 12.1061 14.5543C12.0807 14.5712 12.0518 14.5822 12.0215 14.5863C11.9913 14.5904 11.9605 14.5875 11.9316 14.5778C11.9026 14.5682 11.8762 14.552 11.8545 14.5306C11.8327 14.5092 11.8162 14.4831 11.8061 14.4543C11.6671 13.9543 11.3651 14.0123 10.9521 14.0993C10.6464 14.1733 10.3258 14.1559 10.03 14.0492C9.73412 13.9425 9.47615 13.7513 9.28807 13.4993C9.21853 13.4326 9.16903 13.3479 9.14518 13.2545C9.12132 13.1612 9.12405 13.0631 9.15307 12.9713C9.17541 12.89 9.21851 12.8159 9.27814 12.7563C9.33777 12.6967 9.41187 12.6537 9.49317 12.6314C9.57447 12.6091 9.66017 12.6083 9.74185 12.6292C9.82353 12.65 9.89839 12.6917 9.95907 12.7503C10.0691 12.8503 10.1701 12.9423 10.2801 13.0383C10.4303 13.1713 10.6177 13.2551 10.8171 13.2783C10.9171 13.2923 11.0471 13.3313 11.1101 13.2443C11.1731 13.1573 11.0571 13.0713 11.0191 12.9903C10.8191 12.5903 10.6021 12.1983 10.4051 11.7993C10.3969 11.7737 10.3835 11.7501 10.3657 11.73C10.348 11.7099 10.3262 11.6937 10.3019 11.6825C10.2775 11.6712 10.2511 11.6651 10.2243 11.6645C10.1975 11.664 10.1709 11.669 10.1461 11.6793C9.78837 11.7661 9.41739 11.7837 9.05307 11.7313C8.79534 11.6598 8.56047 11.5229 8.37131 11.3339C8.18215 11.1448 8.04512 10.91 7.97355 10.6523C7.90198 10.3947 7.8983 10.1228 7.96288 9.86331C8.02745 9.60378 8.15808 9.36537 8.34207 9.17127C8.48107 9.03227 8.71607 8.93626 8.77407 8.77726C8.83207 8.61826 8.62507 8.43626 8.55807 8.25426C8.54605 8.22671 8.53962 8.19705 8.53916 8.167C8.53869 8.13694 8.5442 8.10709 8.55536 8.07918C8.56653 8.05127 8.58312 8.02586 8.60419 8.00442C8.62525 7.98297 8.65036 7.96593 8.67807 7.95427C8.70343 7.93728 8.73235 7.92633 8.7626 7.92225C8.79284 7.91817 8.82363 7.92106 8.85258 7.93072C8.88154 7.94037 8.90791 7.95652 8.92966 7.97794C8.95141 7.99935 8.96797 8.02546 8.97807 8.05426C9.11707 8.52926 9.39507 8.52026 9.80307 8.40026C10.0494 8.33985 10.3076 8.34818 10.5495 8.42435C10.7914 8.50052 11.0078 8.64162 11.1751 8.83226C11.221 8.87731 11.2577 8.93097 11.2829 8.99017C11.3081 9.04937 11.3214 9.11297 11.3221 9.17732C11.3227 9.24167 11.3107 9.30551 11.2867 9.36521C11.2627 9.42492 11.2271 9.4793 11.1821 9.52526C11.137 9.57123 11.0834 9.60787 11.0242 9.6331C10.965 9.65832 10.9014 9.67164 10.837 9.67229C10.7727 9.67294 10.7088 9.66091 10.6491 9.63688C10.5894 9.61286 10.535 9.57731 10.4891 9.53227C10.3815 9.40761 10.2425 9.31404 10.0865 9.26129C9.9305 9.20853 9.76324 9.19851 9.60207 9.23226C9.84207 9.68826 10.0721 10.1323 10.3021 10.5763C10.3551 10.6823 10.4321 10.6383 10.5021 10.6243C10.8795 10.5189 11.2742 10.4897 11.6631 10.5383C11.9278 10.6016 12.1729 10.7289 12.3769 10.9091C12.5809 11.0892 12.7375 11.3167 12.833 11.5716C12.9284 11.8265 12.9599 12.1009 12.9245 12.3707C12.8891 12.6406 12.788 12.8976 12.6301 13.1193L12.6331 13.1183Z" fill="white"/>
<path d="M11.153 11.5153C11.633 11.5153 11.872 11.6733 11.997 12.0153C12.0494 12.1887 12.0496 12.3736 11.9975 12.547C11.9454 12.7204 11.8433 12.8746 11.704 12.9903C11.627 13.0523 11.594 13.0483 11.546 12.9613C11.3254 12.5293 11.1 12.096 10.87 11.6613C10.817 11.5553 10.87 11.5313 10.952 11.5223C11.034 11.5133 11.129 11.5153 11.153 11.5153Z" fill="white"/>
<path d="M9.50808 10.7814C9.36932 10.7877 9.23233 10.7484 9.11803 10.6694C9.00373 10.5905 8.9184 10.4764 8.87508 10.3444C8.8237 10.2096 8.81309 10.0626 8.84456 9.92181C8.87603 9.781 8.9482 9.65254 9.05208 9.55241C9.13408 9.45241 9.18608 9.44641 9.25208 9.57641C9.40508 9.89341 9.57307 10.2004 9.73607 10.5084C9.87207 10.7764 9.86708 10.7854 9.50808 10.7814Z" fill="white"/>
</svg>
